<?xml version="1.0" encoding="UTF-8"?>
<svg id="Layer_1" data-name="Layer 1" xmlns="http://www.w3.org/2000/svg" version="1.1" viewBox="0 0 997 2315.7">
  <defs>
    <style>
      .cls-1 {
        font-family: ArialMT, Arial;
        font-size: 60px;
      }

      .cls-1, .cls-2, .cls-3, .cls-4, .cls-5 {
        fill: #000;
      }

      .cls-1, .cls-2, .cls-3, .cls-4, .cls-5, .cls-6, .cls-7 {
        isolation: isolate;
      }

      .cls-2, .cls-3, .cls-5, .cls-6 {
        font-family: Helvetica, Helvetica;
      }

      .cls-2, .cls-4, .cls-6 {
        font-size: 20px;
      }

      .cls-3 {
        font-size: 22.2px;
      }

      .cls-4 {
        font-weight: 700;
      }

      .cls-5 {
        font-size: 11.1px;
      }

      .cls-6 {
        fill: #f15b4a;
      }

      .cls-8, .cls-9 {
        fill: none;
        stroke: #000;
      }

      .cls-10 {
        font-family: Courier-Bold, Courier;
      }

      .cls-9 {
        stroke-width: 2px;
      }

      .cls-11 {
        font-family: CourierNewPS-BoldMT, 'Courier New';
      }
    </style>
  </defs>
  <g class="cls-7">
    <text class="cls-1" transform="translate(16.2 52.4)"><tspan x="0" y="0">A</tspan></text>
  </g>
  <g class="cls-7">
    <text class="cls-4" transform="translate(25 93)"><tspan class="cls-10" x="0" y="0">1</tspan><tspan class="cls-11" x="12" y="0">↓</tspan></text>
  </g>
  <g class="cls-7">
    <text class="cls-4" transform="translate(844 293)"><tspan class="cls-10" x="0" y="0">19.0Mb </tspan><tspan class="cls-11" x="84" y="0">↑</tspan></text>
  </g>
  <path id="_10" data-name=" 10" class="cls-9" d="M20,1883.6l.7,127.2.7,58.8.7.8.7.2.7-2.5.7,3.1.7-1.7.7,2.1.7-1.5.7.2.7.8.7-1.9.7,1.5.7-1,.7-2.1.7,2.7.7-.6.7.4.7.2.7-.6.7.6.7.6.7-1.2.7-.4.7,1.7.7-2.5.7-1,.7,3.3.7-2.7.7,2.3.7-1.5.7,2.5.7-.4.7-1,.7-1.5.7.2.7,1,.7.6.7-1.9.7,3.1.7-1.5.7-.2h.7l.7-.8.7.8.7-.2.7.2.7.6.7.2.7-.2.7-.8.7-.4.7,1.2.7-.2h.7l.7-1,.7.8.7-.2.7.6.7-.6.7.6.7-.4.7-.2.7-.8.7.4h.7l.7,1.2.7.4.7-2.1h.7l.7.2h.7l.7,2.5.7-3.5.7,2.1.7-1,.7,1.7.7-.8.7.8.7-1.2.7,1.5.7-1,.7.2.7-.8.7.4.7-1,.7,1h.7l.7.8.7-.4.7-.2.7.4.7-1.9.7.6h.7l.7.4.7-.8.7-.2.7.8.7,1.7.7-.2.7-1.5.7,1.2.7-2.1.7,1.2.7-.8.7,1.2.7,1.2.7-.6.7-.8.7.2.7-.2.7.4.7-.6.7.4.7.4.7-3.3.7,2.1h.7l.7.8.7-.6.7-.4.7-.8.7,1,.7,1.7.7-1,.7-.4.7-1.2.7,1.9.7.2.7-.4.7.2.7.2h.7l.7.4.7-1.5.7.6.7.6.7.6.7-1,.7.2.7-1h.7l.7.4.7,1.2.7-.8.7-.6.7,1.7.7-1.9.7.2.7.8h.7l.7-.2.7-.2.7,1.7.7-1.7.7.8.7-1,.7-.2.7,1.7.7-.6.7-.2.7-.2.7-.8.7-.4.7,1.2.7-.4h.7l.7,1,.7-.6.7.6h.7l.7-.8.7.2.7-.4.7-1.2.7,1.2.7.4.7-.6.7,1.5.7-1.9.7.4.7,1,.7-.4.7-.2.7.4.7.4.7-.4h.7l.7.2.7-1,.7-.2.7,1.7.7-.6.7-.2.7-.2.7.4.7-.2h.7l.7.2.7.4.7.8.7-1.2.7.4.7-.8.7,1.5.7-.8.7-.8.7,1,.7-1.9.7.6.7,1.5.7-2.5.7,1.9.7-1,.7,1.5.7-1.2.7.4.7,1.5.7-.2.7-1,.7.6.7-1.7.7,1.5.7-1.5.7.6.7.8.7-1,.7-.4.7.4.7.6.7,1.2.7-1,.7-.6.7.8.7-2.1.7,1.5.7-.2.7,1.2.7-.6.7-.2.7.4.7.2.7-.6.7-2.3.7,2.7h.7l.7-1,.7.8.7-.6.7,1,.7-.8.7.4.7-1.7.7.4.7,1.2.7-.2h.7l.7-.2.7.6.7-1,.7-.6.7,1,.7-.8.7-1,.7,1.9.7-.4.7-.4.7-.4.7.2.7,1.5.7-.2.7-.6.7.8.7-1.5.7.4.7.8.7-2.1.7,1.2.7.4.7.2.7-.4.7.2h.7l.7.6.7-1.2.7,1.5.7.2.7-.8h.7l.7.4h1.4l.7-.6.7.6.7-.2.7-.2.7.8.7-1.5.7,1,.7-.8h.7l.7.4.7.6.7-1,.7,1.5.7-2.9.7.2.7.6h.7l.7,1,.7,1.2.7-3.1h.7l.7.8.7,1.5h.7l.7-.8.7.8.7-.4.7-.4h.7l.7-.6.7.6.7.6.7-1,.7-.2.7-.4.7,2.1.7-1,.7-.6h.7l.7.6.7-1.5.7,1.7.7-2.7.7,1.2.7,1.5.7-.2.7-.2.7-2.1.7,1.2.7.2.7,1.5.7-1,.7-.6.7.8.7-.6.7.4.7-1.5.7,2.1.7-1.7.7,2.9.7-1.2.7,1,.7-.6.7-.8.7,1,.7.2.7-.6.7,1.2.7-2.5.7,2.1.7-1.2.7-2.5.7,2.9.7-.8.7,1.5.7-.8.7-1,.7.6.7.2.7.6.7-1.9.7.4.7,3.1.7-2.3.7.8.7-1.7.7.6.7.2.7-2.3.7-.2.7,2.1.7.6.7.2.7-1.9.7,1.7.7-.6.7,1,.7-.4.7.4.7-1.7.7.8.7.2.7.2.7-.6.7,2.9.7-2.5.7.4.7-.2.7-.2.7-1.2.7,1,.7.6.7-.8.7,1.5.7-2.5.7,1,.7.4h.7l.7-.4.7-1.2.7,1.5.7.4.7-.8.7,2.3.7-1.5.7,1,.7-.2.7-.6.7-.4.7-1.5.7,1,.7-.4.7.4.7.2.7,1.5.7-2.1.7.4.7-.6.7.8.7,1.2.7-.6.7-1.5.7-.2.7,2.1h.7l.7-1.2.7,1.7.7-.8.7-1.7.7,1.5.7-.4.7.4.7-.6.7-.2.7.8.7-1h.7l.7-.2.7.8.7,1.2.7.4.7-.6.7-.6.7-.8.7,1.2.7-.6.7.2.7-.2.7-.4.7,1.2.7.2h.7l.7-.4.7.8.7-1.9.7,1.9.7-1.5h.7l.7.2.7.6.7-1.2.7.4.7.8.7.4.7-1,.7-.6.7,1.7.7-1.9.7.4.7,1,.7-.6.7-1.9.7,2.3.7-.2.7.8.7-1.2h1.4l.7-.2.7-.4.7,1.5.7-1.2.7-.2.7-.2.7,1h.7l.7-.6.7,1.9.7-1.5.7,1,.7-2.1.7,1.7.7.2.7-1,.7.4.7.2.7,1.2.7-.8.7-.2.7.2.7-1.2.7-.4.7,1.9.7-.4.7-1.2.7,1.2.7-.4h.7l.7-.6.7,1.7.7-.8.7,1,.7-2.5.7.8.7.4.7.8.7-1.7.7,2.3.7-1,.7.4.7-1,.7,1,.7-.6.7-1.2.7,1,.7-.2.7,1.2.7-2.1.7,2.9.7-2.3.7-.8.7-1.5.7,1.5h.7l.7,1.7.7,1.2.7-1,.7.2.7-1,.7,1.2.7-1.5.7,2.3.7-2.3.7.4h1.4l.7-2.1.7,1.5.7,1.9.7-2.3.7.8.7-.6.7,1,.7,1,.7-2.1.7.2.7,1.5.7-.2.7-.4.7-.6.7.6h.7l.7.8.7-.4.7-.2h.7l.7.6.7-1.9.7-.2.7.4.7,1.2.7-1.2.7-.6.7.4.7,1.7.7-.8.7-.4.7,1,.7-.2.7.2.7-.4.7-.6.7,1.9.7-1.7.7.6.7-1,.7.4.7.8.7-.8.7.6.7-.4h.7l.7-.4.7,1.2.7-1.2.7.8.7-1.5.7,1h1.4l.7-1.7.7,1.5.7.8.7-.8.7-.2.7,1.7.7-1,.7-.6.7-.4.7-.8.7.2.7,2.1.7-1.2.7.4.7-1.5.7,2.7.7-.2.7.8.7.2.7.4.7.6.7-2.9.7.6.7.8.7-.2.7.2.7-.8.7-1,.7-.4.7-.2.7,1,.7-.8.7.4.7-.6h.7l.7.4.7-.6h.7l.7-1.2h.7l.7.6.7.6.7-.4h.7l.7.2.7,1.5.7,1.5.7-2.5.7.2.7,1.2.7,2.3.7-3.3.7.4.7-1,.7,1,.7-.2.7-.8.7.4.7-.6.7-.2.7-3.3.7,2.5.7-.8.7-1.7.7-.6.7,5.6.7,1.7.7.8.7.2.7.2h.7l.7-.2.7-.4.7.6.7-2.1.7-.8.7-2.3.7.4.7-1.7.7-.4.7.6.7,1.9.7-1.5.7,1.7.7,1.9.7-1.5.7-.4.7,1.7.7-1.7.7-.6.7,1.9.7-.6.7-1,.7,1.9.7-2.1.7,1.5.7,2.1h.7l.7-.4h.7l.7.4.7-.2.7-3.7.7,1,.7-1.2.7,3.3.7.8.7.8.7-.2.7-.4.7-1.2.7-.2.7-5.4.7,1,.7.8.7-1.7.7-.2.7,2.3.7-1h.7l.7,1.9.7-.8.7,2.5.7-.8.7-.4.7.8.7-1.2.7,1.7h1.4l.7-.8.7.8.7.8.7-.8.7-.8.7,1.2.7-.2.7-1.5.7.2.7.4.7,1.5.7-.8.7-2.1.7-6,.7,8.7.7-3.5h.7l.7.4.7,1.9.7-.6.7-2.1.7.2.7,1.9.7-1,.7.4.7-.6.7-2.9.7,2.9.7-.2.7-.6h.7l.7-.4.7,1.9.7.2.7.6.7-.8.7,3.5.7-1.2.7,1.7.7-.8.7,1,.7.8.7-.6.7-1.5.7.4.7-1.2.7,1.7h.7l.7.8h1.4l.7-.6.7.2.7.8h2.1l.7-2.7.7,1h.7l.7.6.7.2.7.4.7-1,.7.2.7-1.2.7,1.7.7-1,.7,1,.7-.2.7.2.7.4.7-3.7.7,2.5.7-1,.7.6.7-1,.7.6.7-.6.7,1,.7-1.7.7.4.7.6.7-1.7.7,1.7.7-.8.7-.6.7,2.5.7-3.5.7,2.3.7-.4.7.8.7-.6.7-.6.7.4.7.6.7,1,.7-1.2.7-.2.7.6.7.4.7-.2.7.2.7-1.5h.7l.7,1.2.7-1.9.7.4.7.6h.7l.7.2.7.4.7.6.7-2.1.7,2.1.7-.8.7-.4.7.4.7-.2.7-1.5.7,2.1.7-.6.7.2.7,1,.7-.2.7-1.9.7,1,.7.2.7-.2.7-.8.7.2.7,1.7.7-1.2.7-.4.7-.2.7.8h1.4l.7.2h.7l.7-.6.7.6.7-2.1.7,2.1.7-.8.7.4.7.2.7.4.7-.6h.7l.7-.8.7,1h.7l.7-.2.7.6.7.6.7-1.9.7,1.2.7-.4.7-.8h.7l.7,1.7.7-2.7.7.4.7,1.5.7-.6.7,1.9.7-1h.7l.7-.2h.7l.7-1,.7,2.1.7-1.7.7-.2.7-.6.7,2.5.7-1.5.7-.6.7,1.9.7-1.2.7.6.7-.6.7.8.7.4.7.2.7-2.3.7,1.7.7-.8.7.2.7.8.7-2.5.7,1.7.7.4.7-1.2.7,1.2.7-.6.7-.2.7-.4.7,1.2.7.2.7.2.7-.4.7.4.7-2.1.7,2.1.7-1,.7.6.7-2.1.7,2.5.7-1,.7.6.7.4.7.4.7-3.1.7,2.9.7-1.5.7-1.9.7,2.1.7,1.5.7-.4.7,1.2.7-2.1.7-.6.7-.8.7,1.5.7.4h.7l.7-.2.7-1,.7,1.7.7-1.2.7-1.2.7,1.2.7-.4.7,2.1.7-1.5.7-.4.7.8.7-.8.7,1,.7.4.7-.8h.7l.7-3.1.7,1.2.7,1.7.7-.8.7.8.7,2.5.7-2.5h.7l.7-.2.7-.4.7,1h.7l.7-1.9.7,1.5.7-.2.7-.4.7-1.7.7,1.5.7-1,.7-.4.7,1.2.7-.4.7.6.7.2h.7l.7.2.7-.6.7.8.7-.8.7-.2.7.4.7.2.7-1.7h.7l.7,3.1.7-1.9.7,1,.7-.6.7.4.7-3.5.7,1,.7,2.9.7-.4.7-2.5.7,2.1.7-.8.7-.4.7-1,.7,1.9.7-.4.7,2.1.7.8.7-2.3.7,1.5.7.2.7-1.9.7,1.9.7-.6.7-1,.7.8.7-.8.7,1.2.7-1.7.7,1.2.7.2.7-.8h.7l.7,2.5.7-2.9.7.8.7-.6.7,1.2.7-.8.7-.8.7-.2.7,1.2.7,1.2.7.6.7-.8.7,1.2.7-1,.7-.2h.7l.7-.4.7,1.2.7-4.2.7,3.5h.7l.7-3.1.7,3.3.7-1.9.7,1.2.7-.6.7,1.2.7-.2.7-.6.7.2.7-1.5.7-.6.7-.4.7,2.1.7-.4.7-2.1.7,2.3.7-1.5.7,1,.7,2.1.7-3.7.7,2.7.7-1.9.7,2.1.7-1.2.7,1.2.7-1.2.7.4.7,1,.7-.4.7-.2.7.2.7.4.7-1,.7.8.7-1.5.7,1.9.7.2h.7l.7-.8.7-.8.7.6.7-.8.7,1,.7-1,.7.6.7.2.7.2.7-.4.7-.4.7-.8.7,1,.7-.2.7,2.1.7-2.5.7,1,.7-.2.7.4.7-.8h1.4l.7-1.7.7,2.3.7-1.2.7,1.5.7-.6.7,1.9.7-2.5.7,2.1.7-2.3.7,2.5.7-2.1.7.4.7.4.7.6.7-.6.7-1.2.7-.2.7,1.2.7-.4.7,1.5.7-1.5.7-.4.7.6.7,1.5.7-2.3.7-.6.7,2.1.7.2.7-.6h.7l.7-1.2.7,2.1h.7l.7-.2.7-1.5.7,1.9.7-1.9.7,1,.7-.6.7.8.7-.2.7.2h.7l.7.4.7-1,.7.6.7-2.1.7,2.1.7-1.2.7,1,.7-.2.7-.2.7-.6.7,2.3.7-3.7.7,2.3.7,1.2.7-1.9.7.6h.7l.7.2.7,1.5.7-1,.7-.8.7,1.5.7-1.7h.7l.7.2h.7l.7-.4.7-.8.7,1h.7l.7.6.7.4.7-.8.7.2.7,1.5.7-.8.7-.4.7-.4.7.4.7-1.5.7,1.7.7.4.7-1.7.7-.6.7,1.5h.7l.7.8.7-2.1.7-.4.7,1.5.7,1.7.7-.6.7-1.5.7-.2h.7l.7.2.7.8.7-.2.7-.4.7-.8.7,1.7.7-1,.7.6.7-2.7.7,1.7h.7l.7.6.7.2.7,1.2.7-1.2.7,1,.7-1,.7.2.7-1.2.7,1.7.7.4.7.4.7.2.7-.8.7.6.7.2.7-2.7.7,1.7.7-1.2.7,1.2.7-.6.7,1.2.7-.8.7-1.9.7,1.9.7-.4.7,1.2.7-1,.7.4.7-1.2h.7l.7,1,.7.2.7-.8.7.8.7-1,.7.8h.7l.7-.6.7.8.7.4h.7l.7-.2.7.2.7-.8.7,1.2.7-.8h.7l.7-.8h.7l.7-.4.7,1.5.7-1.2.7,1,.7-1.5.7.6.7.6.7-.8.7,1.2.7.2.7-.6.7-.8.7.8.7.8.7-.2.7-.4.7.6.7-.6.7-132.6.7-59.7.7,4.4"/>
  <g class="cls-7">
    <text class="cls-4" transform="translate(25 293)"><tspan class="cls-10" x="0" y="0">2</tspan><tspan class="cls-11" x="12" y="0">↓</tspan></text>
  </g>
  <g class="cls-7">
    <text class="cls-4" transform="translate(844 493)"><tspan class="cls-10" x="0" y="0">15.6Mb </tspan><tspan class="cls-11" x="84" y="0">↑</tspan></text>
  </g>
  <path id="_9" data-name=" 9" class="cls-9" d="M20,1678.7l.9,190.4.9.2.9,1.4.9-.7.9-.2.9-.2h.9l.9-.7.9,1.4.9-.2.9.2.9-.2.9,1.4.9-2.5.9-.7.9.2.9,1.1.9.2.9-.9.9.5h.9l.9-.5.9,1.8.9-1.1.9.2.9-.5.9,1.1h.9l.9-.2.9-.2.9.5.9.2.9-1.6.9-.2.9.5.9-.9.9-3.4.9,2.3.9.9.9,1.1.9-2.7.9,1.8.9-2.1.9,3.2h.9l.9-.5.9.5.9,1.6.9-2.7.9-.5.9,2.5.9-.9.9.2.9.2.9.2.9.7.9-2.5.9.2.9.5.9,1.1.9-.2.9-.7.9-1.4.9,1.4.9-3.2.9-.2.9,1.1.9,2.1.9-2.3.9,1.4.9,1.8.9-.2.9-1.1.9.2.9,1.6.9-.5.9-.2.9-.7.9,1.6.9-.5.9-1.1.9-.7.9,1.6.9-4.6.9,1.6.9,2.5.9-3,.9,3.9.9-2.3.9.9.9-1.4.9-.7.9-.5.9,1.6.9-.9.9.5.9,1.8.9-2.5.9,1.6.9,1.4.9-3.4.9,2.7.9,1.6.9.2.9-.9.9.5.9-1.1.9-1.1.9,3,.9-4.1.9,1.1.9.5.9.2.9-2.7.9,3.4.9.2.9-2.7.9,1.1.9,1.1.9-3.4.9,3.2.9-1.6.9,1.8.9-3.6.9,4.1.9-1.4.9-.9.9-2.1.9,5.5.9-2.1.9.5.9.2h.9l.9,1.6.9-.9.9-.7.9-.2.9-1.1.9,2.1.9-1.4.9-1.1.9,2.3h.9l.9-2.1.9,1.8.9-1.1.9.2.9.7h1.8l.9-2.1.9,2.5.9-.7.9.7h.9l.9.2.9-.5.9-.9.9,1.1.9.7.9-1.4.9,1.6.9-2.5.9,1.8.9.5.9-.2.9-.7.9,1.4.9-2.3.9.7.9.5h.9l.9-1.1.9-.2.9,1.1.9-.7.9,1.1.9-1.4h.9l.9-1.1.9,1.6.9.2.9.5.9.9.9-1.4.9.2.9-.2.9.7.9-.5.9-.2.9.9.9.2.9-2.3.9.7.9-1.1.9,1.4.9,1.1.9-2.5.9,2.3.9-.9.9-1.1.9,1.8.9-.5.9-.2.9.9.9-.9.9-.9.9,1.8.9-.9.9-1.1.9.2.9-.2.9.2.9,1.1.9.5.9-1.1.9-.2.9,2.3.9-.7.9-.2.9-1.1.9,1.8.9-2.3.9,3,.9-1.6.9-1.1.9-.2.9,2.1.9-.9.9-.7.9,1.1.9,1.4.9-.9.9-.5.9.5.9-.9.9.5.9-1.1.9,2.1.9-1.8.9.7h.9l.9-.7.9,2.3.9-1.6.9-.2.9.5.9-.7.9,1.1.9-.7.9.9.9-2.3.9,1.1.9,1.6.9-.9.9.5.9.2.9-.2.9-2.5.9,1.4.9-1.4.9,2.5.9-1.8.9,2.1.9-2.1.9-1.1.9.9.9,1.1.9-.9.9-.5.9,1.1.9-.5.9-.2.9,1.6.9-2.7.9.7.9.7.9.2.9.7.9-2.1.9.5.9,1.4.9.2.9-1.8.9,2.5.9-1.4.9.7.9-.2.9-1.1.9-.2.9,2.3.9-1.4.9.7.9-.5h.9l.9.5h.9l.9-.5.9-.5.9-1.1.9,1.4.9.9.9-2.1.9,2.3.9-2.3.9-.5.9-.2.9,1.6.9-.9.9,1.4.9,1.1.9-1.1.9,2.1.9-1.8.9-1.8.9.7.9.5.9-.5.9.5.9-.5.9.9.9-.2.9-.7.9.5.9.2.9,1.1h.9l.9-1.4.9-.9.9,1.6.9.7.9-1.8.9,1.1.9.5.9-1.4.9.9.9-1.6.9,2.1.9-.9h.9l.9.5.9-1.1.9,1.1.9-.2.9,1.4.9-.2.9-1.4.9-3,.9,2.1.9,2.1.9-2.1.9,2.3.9-1.6.9,1.1.9-.9.9.2.9.9.9-.7.9.9.9-1.4.9-.5.9,1.1.9.2.9-1.4.9.5.9-.2.9,1.6.9-2.7.9,1.4.9,1.6.9-3,.9,1.4.9-1.4.9,2.5.9-1.8.9.5.9,1.4.9.2.9-1.4.9.5.9.7h.9l.9-1.4.9.5.9-.7.9.2.9-1.4.9.9.9,1.8.9.5.9-3.2.9,2.1.9.5.9.9.9-.9.9-2.1.9-.2.9.5.9,1.8.9-.5.9-.2.9-2.1.9,3.4.9-1.6.9-.7.9-.7.9.7.9.7.9.9h.9l.9.2.9-3.2.9,2.1.9,1.4h.9l.9-.2.9-.9.9.5.9.5.9-.5h.9l.9.9.9-1.4.9-.5.9.5.9-.2.9.7.9-2.1.9,1.6.9.9.9-1.8.9-1.6.9,3.2.9-.5.9.9.9-.7.9-2.1.9,1.6.9-3.2.9,2.3.9-.2.9,1.4.9.2.9-1.6.9,2.3h.9l.9.5.9-2.1.9.2.9.5.9-4.1.9,4.6.9-.2.9.2.9.5.9-.7.9-.7.9-.9.9,2.7.9-1.1.9-.9.9.2.9-.7.9,2.3.9-3,.9,1.1.9.9.9.2.9-.7.9-1.1.9-.2.9,2.7h.9l.9-.7.9-.5.9.5.9-.7.9-.7.9.5.9.5.9-.7.9-1.1.9,1.8h.9l.9-.7.9,2.3.9-1.6.9.2.9-.7.9.5h.9l.9.5.9-.9h.9l.9,1.4.9-.9.9,1.4.9,1.6h.9l.9-.2.9-.2h2.7l.9.5.9-1.6.9,1.6.9-.2.9.2h.9l.9-.5.9.2.9.2h3.6l.9-1.1.9-.7.9,1.6.9-1.4.9,1.6.9-.2.9-.2.9-1.6.9,1.8.9-1.1.9,1.4h.9l.9-.5h.9l.9.2h.9l.9-1.4.9,1.6h.9l.9-.2.9.2.9-.5.9.2.9.2.9-.2.9.2.9-.2.9.2.9-.2h1.8l.9.2h.9l.9-.9.9.2h.9l.9.7h1.8l.9-1.6.9,1.6h1.8l.9-1.8.9,1.1.9.2.9-.9.9,1.4h.9l.9-.2.9-1.4.9.9.9-.9.9,1.6h1.8l.9-.2.9-.2.9.2.9-.2.9.5.9-1.6.9,1.6.9-.2.9.2.9-.2.9.2h.9l.9-.2.9.2h.9l.9-.2.9.2.9-.2.9.2h.9l.9-.2h.9l.9.2h4.4l.9-1.6.9,1.4.9-.2.9-.9.9,1.1h1.8l.9.2h1.8l.9-.5.9.5h5.3l.9-.2.9-1.4.9,1.1.9.5h2.7l.9-.2h1.8l.9.2.9-1.6.9,1.6h1.8l.9-.2h.9l.9.2h4.4l.9-.2.9-1.1.9.5h.9l.9.7h.9l.9-.2.9.5.9-.2.9.2h8l.9-1.6.9,1.6h.9l.9-1.6.9,1.1h1.8l.9.2.9.2h3.6l.9-.5.9.2.9-1.1.9-2.3.9,1.4.9-1.8.9,1.1.9.9.9-.7.9-1.1.9,1.1h1.8l.9-1.1.9.7.9-1.4.9,2.3.9-.7.9.5.9-.9.9-.2.9-.2.9,2.1.9-3.4h.9l.9,2.5h.9l.9-1.6.9,1.1.9-1.6h.9l.9,1.6.9-1.6.9,1.6.9-.2.9-.7.9-1.6.9,2.7h.9l.9-.2h.9l.9-3.4.9,3.9.9-.7.9-.7.9.7.9.9.9-1.1.9.9.9-.5.9.5.9-1.1.9,1.1.9-1.1.9.9.9.2.9.7.9-1.4.9.2.9-1.1.9.7.9.7.9,1.8.9-.7.9-1.8.9.2.9-.5.9,1.1.9.7.9-1.8.9.2.9-.5.9-1.1.9,1.1.9.5.9-.2.9.7.9.7.9,1.8.9-1.6.9-2.1.9,1.1.9-2.5.9-2.7.9,3.6.9.2.9,1.4.9.2.9,1.4.9-.7.9-1.1.9-.2.9-.7.9,3,.9-1.1.9.5.9-2.7.9,2.3.9-1.6.9.9h.9l.9,1.4.9-.7.9-.5.9.2.9-.5.9.9.9-.2.9-.7.9-.7.9.5.9.9.9-2.5.9.2.9,1.8h.9l.9.5.9.5.9.2.9.5.9-1.8.9,1.1.9-2.3.9.5.9,1.6.9-.2.9-1.4.9,1.8.9.7.9-2.7.9,1.4.9,1.1.9-.5.9-.2.9.5.9.7.9.5.9-.7.9.2.9-1.6.9.5.9.2.9-.2.9-2.7.9,2.3.9-.7h.9l.9,1.6.9-1.1.9.7.9-.2.9-2.3.9,1.8.9.9.9-2.5.9,2.1.9-1.4h.9l.9.2.9.9.9-.9.9,1.1.9.7.9-.5.9-1.1.9,1.4.9.2.9-1.4.9.5.9-1.4.9.2.9.2.9.7.9.7.9-1.4.9.5.9,1.6.9-2.3.9,2.7.9-3.4.9-1.8.9,3.4.9-2.5.9,1.6.9,1.8.9-.9.9.5.9.2.9-.2.9,1.4.9.2.9-1.1.9-2.1.9.7.9-.9.9,2.7.9-1.4.9-.7.9,1.1.9-1.1.9-.2.9,1.1.9,1.1.9-2.1.9-.7.9,2.7.9-2.3.9.5h.9l.9-.9.9,1.8.9.9.9-.5.9-1.1.9-.2.9-1.1.9,1.1.9.9.9.2.9.5.9-2.1.9,1.1.9-1.8.9,1.6.9.7.9-1.1.9.7.9-1.4.9,1.4.9-.9.9.5.9.2.9-1.4.9,1.1.9-1.6.9-.2.9.2.9,2.3h.9l.9-1.6.9,1.4.9.9.9.2.9-1.1h.9l.9-1.4.9,1.1.9-.2.9.5.9-1.4.9.2.9,2.3.9-1.8.9,1.6.9-1.4.9-.5.9,1.1.9-3.2.9,2.5.9-.9.9.2.9.2.9.5.9-.5h.9l.9.2.9-1.1.9,2.5.9-1.4.9-1.6.9,1.1.9-.9.9,1.6.9-.2.9.5.9-1.6.9.5.9-.2.9,2.3.9-1.8.9,1.1.9-.5.9-.7.9.7.9-.7h1.8l.9,1.6.9-2.1.9.9.9,1.6.9-2.1.9-1.1.9,1.8.9-1.4.9,2.7.9-.9.9.5.9-.5.9-.5.9-.5.9,1.4.9-1.6.9.9.9.2.9-1.4.9,1.1.9-1.1.9,1.4.9.7.9-1.6.9-.2.9,1.6.9,1.1.9-1.8.9-.5.9.7.9.2.9,1.1.9-2.1.9.7.9-1.4.9,2.3.9-2.1.9,1.6.9-1.4.9,1.4.9.5.9-1.1h.9l.9,1.6.9-3,.9.5.9,2.3.9-2.1.9,1.8h.9l.9-1.1.9-.2.9,1.4.9,1.1.9-1.1.9-.5.9-1.6.9,1.4.9-.7.9-.5h.9l.9.7.9.7.9-1.4.9-.2.9,1.1h.9l.9.2.9-1.1.9.7.9-.5h.9l.9-1.8.9,5.2"/>
  <g class="cls-7">
    <text class="cls-4" transform="translate(25 493)"><tspan class="cls-10" x="0" y="0">3</tspan><tspan class="cls-11" x="12" y="0">↓</tspan></text>
  </g>
  <g class="cls-7">
    <text class="cls-4" transform="translate(844 693)"><tspan class="cls-10" x="0" y="0">15.1Mb </tspan><tspan class="cls-11" x="84" y="0">↑</tspan></text>
  </g>
  <path id="_8" data-name=" 8" class="cls-9" d="M20,1665.3l.7,7.7h.7l.7-3.1.7-2,.7-1.5.7-2.6.7,2,.7-1.5.7,3.1.7-1,.7-1h.7l.7,2h1.4l.7-1.5.7,2h.7l.7-2.6.7,1.5.7-1h.7l.7-1,.7,1.5.7-2.6.7,2,.7.5.7-.5.7-3.1.7,9.2.7-7.1.7.5.7-.5.7,1,.7-1,.7-3.1.7,6.6.7-2.6.7-2,.7,4.6.7-3.6.7,5.1.7-2.6.7-2.6.7,1.5.7.5.7-2.6.7,3.1.7-1,.7,2,.7-5.1.7,4.1.7-1.5h.7l.7,4.1.7-1,.7-.5.7-2.6.7-4.1.7,4.1.7,1.5.7-2,.7,2.6.7-2.6.7,3.1.7-.5h.7l.7-.5.7-2,.7-.5.7-1,.7,2.6.7-3.6.7,1.5.7-1.5.7,1.5.7,3.6.7-2,.7-.5.7,3.1.7-6.1.7,3.6.7,2,.7-1,.7-1.5.7,2,.7-3.6.7,4.1.7-1.5h.7l.7-2,.7,6.1h.7l.7-5.1.7.5.7.5.7,1.5.7.5.7-3.1.7,1,.7,1,.7-.5h.7l.7.5.7-3.6.7,3.6h.7l.7-.5h.7l.7-3.1.7,3.1.7-2,.7.5.7,3.6.7-7.1.7,1.5.7,3.1.7-1,.7,2,.7.5.7-.5.7,1,.7-.5.7-.5.7-1.5.7-3.6.7,2.6.7.5.7,2,.7,1.5.7-2h.7l.7-2h.7l.7,3.1.7-.5.7.5.7-.5.7-2.6.7-1,.7,3.6.7-3.1.7,2.6.7,2,.7-3.1.7-2.6.7,3.6.7-1.5.7,5.1.7-3.6.7.5.7-1h.7l.7,3.1.7-2.6.7-1h.7l.7-.5.7,4.6.7-4.1.7.5h.7l.7-1,.7-1.5.7,2,.7,2h.7l.7-5.6.7,1,.7,3.1.7-3.6.7,5.6.7-3.1.7-1.5.7.5.7,3.1.7-3.1.7-1,.7,4.1.7-1.5.7-2.6.7,2,.7,3.1.7-2.6.7,3.6.7-1.5.7-5.1.7,2,.7,2,.7,3.6.7-2.6.7-4.1.7,3.1.7.5.7,1.5.7-1.5.7-3.6.7,2,.7.5.7,1.5.7-1.5.7-1,.7-.5.7,1,.7,1,.7,2,.7-4.1.7,1.5.7,3.1.7.5.7-3.6h1.4l.7-.5.7,2,.7-5.1.7,4.6.7-.5.7,1,.7.5.7-.5.7-1.5.7,2,.7-4.6.7,2h.7l.7-1,.7,4.1.7-6.1.7,3.1.7,1.5.7-4.6.7.5.7-.5.7,4.6.7-3.1.7-4.1.7,5.6.7,1.5.7-1.5.7,1.5.7-1,.7.5.7-1,.7-3.1.7,3.6.7-2,.7,2,.7-1,.7,1,.7.5.7.5.7-2.6.7,1,.7,2.6.7-3.6.7-1.5.7,4.1.7-2,.7,3.1.7-3.1.7,2.6.7-.5.7-8.2.7,5.1.7,2.6.7.5.7-1,.7,3.6.7-5.1.7,4.1.7-2,.7-2,.7,2,.7-2.6.7-1.5.7,1.5.7,1,.7-.5.7,4.1.7,1,.7-2.6h.7l.7-1.5.7,1.5.7-2.6.7,3.1h.7l.7-4.1.7,2.6.7-1,.7-2.6.7,1.5.7-6.6.7,7.1.7,3.1.7-5.1.7,5.1.7-.5.7-.5.7,1.5.7-1.5.7-.5.7-.5.7,1,.7,3.6.7-4.1.7-1,.7,6.1.7-6.1.7,3.1.7-.5.7-2,.7.5.7-1,.7.5.7-1.5.7-.5.7,2,.7-1.5.7,1.5.7,2.6.7-2,.7,1,.7-2,.7,1.5.7,1h.7l.7-1.5.7-2.6.7-.5.7,4.6.7-1,.7-2.6.7-2.6.7,4.6h1.4l.7.5h.7l.7-1,.7-1,.7-3.1.7,7.7.7-3.6.7-2,.7,3.6.7-4.6.7,4.6.7-1,.7-.5h.7l.7,2,.7-2.6.7-1,.7,3.1.7,1h.7l.7-4.1.7,5.1.7.5.7-3.6.7,2.6.7-1.5.7-2.6.7.5.7,1.5.7-2.6.7,1,.7,1,.7-1.5.7,2,.7-.5.7-2,.7.5.7.5.7,2,.7-.5.7-5.6.7,2,.7,2,.7,1,.7,2.6.7-4.1.7.5h.7l.7-.5.7,2.6.7-1.5.7,2,.7-1.5.7.5.7,3.1.7-4.1.7,1.5.7-.5.7-.5.7-.5.7-1,.7,1.5h.7l.7,1,.7-1.5.7,3.6.7-5.1.7,3.1.7-.5.7,1.5.7-3.1.7,2,.7-.5.7-.5.7,2.6.7-4.6.7-.5.7,5.1.7,2,.7-7.1.7,6.1.7-3.1h.7l.7,2.6.7-.5.7-3.6.7,2.6.7-1.5.7,2.6.7,1,.7-3.1.7-1,.7-2.6.7,4.6.7-3.1.7,1,.7-2.6.7,3.1.7-2,.7,5.6.7-5.1.7-1,.7.5.7,1.5.7-1,.7.5.7-1,.7-.5.7,1,.7,2.6h1.4l.7-1.5.7,2.6.7,1.5.7,1,.7-6.1.7,4.1.7-2,.7-1.5.7-1,.7-.5.7,4.1.7.5.7-4.6.7,4.6.7-3.6.7,2.6.7-3.1.7-2,.7,3.6h.7l.7.5.7-1.5h.7l.7,2.6.7-2.6.7,1.5.7-2,.7,4.1.7-1.5.7.5.7-1,.7,1.5.7-2,.7-3.1.7,5.6h.7l.7-5.6h.7l.7,4.1.7.5.7-5.6.7,3.1.7,3.1h.7l.7-2.6.7-2,.7,1.5.7,1.5.7-1.5.7,1,.7-1,.7,5.6.7-4.1.7,2,.7-1,.7-.5.7-1,.7,6.6.7-.5h1.4l.7-.5.7-5.1.7,1.5.7,3.1.7.5.7-4.6.7-.5.7-.5.7-4.1.7,7.1.7-1.5.7-1.5.7,5.6.7-4.1.7-2.6.7,4.6.7-3.6.7-1,.7-2,.7.5.7,6.1.7-1.5.7,3.6.7,1,.7.5.7-.5.7-.5.7.5.7-.5.7-7.1.7.5.7,7.1h.7l.7-2,.7,2,.7-.5.7.5.7-.5h.7l.7,1h.7l.7-.5.7-1,.7,1.5h.7l.7-1.5h.7l.7,1,.7-2.6.7,3.1h.7l.7-1,.7.5.7-.5.7-.5h.7l.7,1.5h2.7l.7-.5.7.5h.7l.7-.5.7-1,.7-3.1.7-1.5.7,1.5.7.5.7-.5.7-3.6.7,3.1h.7l.7,2.6.7.5.7-6.1.7-2,.7,2.6.7,1,.7,3.1.7-4.1.7,1.5.7-3.1.7,2,.7,1h.7l.7,3.6.7-.5.7-.5.7,1,.7,1.5.7.5.7-.5.7-2.6.7,1h.7l.7-2.6.7,1.5.7-1.5.7,2,.7-.5.7-.5h.7l.7.5.7,1.5.7,1,.7-.5.7-1.5.7-.5.7-2,.7,4.6.7-2.6.7,1.5.7,1.5h.7l.7-.5.7-.5.7-3.6.7-1,.7,2.6.7.5.7.5.7-1.5.7.5.7.5.7-1,.7-2.6.7,3.1.7-.5.7,3.6.7-2.6.7-4.1.7,2.6.7,1.5h1.4l.7-2h.7l.7-1,.7-1.5.7,1.5.7,1,.7,1,.7-.5.7-1.5.7,3.6.7-3.1.7-5.6.7-3.6.7,7.1.7.5.7,6.1.7.5h.7l.7-3.1.7-2.6.7-.5.7,2,.7-2,.7,6.1.7-1,.7,1,.7-.5.7.5.7.5.7-1h1.4l.7,1h.7l.7-2.6.7-.5.7-3.6.7-6.1.7,5.6.7,3.1.7,1.5.7,2,.7-1.5.7-.5.7-.5.7,1.5.7-1.5.7,1,.7,2,.7-.5.7-1.5.7-.5h.7l.7,2.6.7-.5.7-1.5.7,1,.7,1h2.1l.7-.5.7-1,.7-2.6.7,3.6.7-3.1.7,2,.7,1,.7-1,.7.5.7-1.5.7,1,.7,1.5.7-1,.7.5h1.4l.7.5.7-1.5.7-6.6.7-.5.7,2.6h.7l.7-.5.7,6.1h.7l.7.5h.7l.7-2,.7-7.7.7,1.5.7,2,.7,1.5.7,3.6.7-5.6.7,1,.7-3.1.7-.5.7,1.5.7-1.5.7,5.1.7-5.6.7-3.6.7,6.1.7-2,.7-3.1.7,3.6.7,1,.7-1.5.7,3.6.7-1.5.7,1,.7-.5.7-2.6.7,1,.7,2.6.7,1h.7l.7-2,.7-2.6h.7l.7.5.7,4.6.7-4.1.7-1.5.7,3.1.7-1,.7,1,.7,2.6.7-2.6h.7l.7,3.1.7-2.6.7-1.5h.7l.7-.5.7,1.5.7-2.6.7,2.6.7,2,.7-1,.7-3.6.7,4.6.7-2,.7,2.6.7-6.1.7.5.7,5.6.7-2.6.7-2,.7.5.7,1h.7l.7-3.6.7,2,.7,6.1.7-4.1.7-2.6.7,3.1.7-5.6.7,9.7.7-2.6.7-2h.7l.7-2.6.7,4.6.7-2.6.7-1.5.7.5h.7l.7,3.1.7-5.6.7,6.1.7-3.1.7-2,.7-.5.7,1.5.7,2,.7,2.6.7-5.6.7,2.6.7,3.6.7-6.1.7,2h.7l.7,1.5.7-2,.7,2,.7-1,.7,3.1.7-3.6.7-.5.7,3.6.7-5.1.7,2,.7-1,.7.5.7.5.7-.5.7,2.6h.7l.7,1.5.7-2.6h.7l.7-1,.7,3.6.7-3.1.7.5.7-3.6.7.5.7-.5.7,4.6.7.5.7-4.1.7,5.1.7-7.7.7,9.7.7-1.5.7-3.6.7-.5.7-3.6.7,4.1.7-1.5.7,5.6.7-2.6.7-1.5.7.5.7-1.5.7-.5.7,6.1.7-.5.7-5.1.7,1,.7.5.7.5.7,1.5.7-3.6.7-2,.7.5.7,6.6.7-4.6.7,2,.7-3.1.7,3.1.7-.5h.7l.7-1,.7-2.6.7,2.6.7,2.6.7-1.5.7-2.6.7,3.1h.7l.7-2,.7-2,.7,1,.7,5.1.7-1.5.7-2,.7.5.7-5.6.7,6.1h.7l.7,1,.7-1.5.7-2,.7,5.6.7-8.7.7,4.1.7,2,.7,4.6.7-4.1.7-3.6.7,1.5.7,2,.7-4.1.7,1.5.7,3.1h.7l.7-.5.7.5h1.4l.7.5.7-6.1.7,7.1.7-5.6.7,3.1.7-2.6.7,3.1.7,2,.7-4.6.7-2,.7,4.6.7.5.7-3.6.7,2,.7-2,.7,1,.7-5.1.7,7.1h.7l.7-3.1.7,2.6.7-3.1.7,1,.7-2.6.7-1,.7,5.6.7,1.5.7-3.6.7-.5.7,3.6.7-3.6.7,3.1.7-.5.7-1.5.7,2,.7-2,.7.5.7-.5.7,1.5.7-2.6.7,1.5.7-1,.7-1,.7,2,.7,1.5.7-2.6.7,5.1.7-.5.7-4.1.7,1h.7l.7-1,.7-1.5.7,2,.7-1.5.7-3.1.7-2.6.7,6.6.7,1,.7-3.6.7,2,.7.5.7-1,.7.5h.7l.7-.5.7,2,.7-1,.7,3.1.7-3.1.7,2,.7-.5.7-.5h.7l.7-2.6.7,2.6.7,2,.7-3.6.7,2,.7-1.5.7.5.7-.5.7,1,.7,1,.7.5.7-4.6.7,3.1.7,3.1.7-4.6h.7l.7,1,.7-1.5.7-5.1.7.5.7,2,.7,4.6.7-7.1.7,5.1.7,2.6.7-2h.7l.7-1,.7-.5.7-.5.7,3.1h.7l.7,1.5.7-1,.7-1h.7l.7-4.6.7,5.1.7,1,.7-1,.7-4.1.7,6.1.7-3.6.7,2.6.7-4.6.7,1.5.7,5.1.7-2,.7,3.1.7-3.1.7-.5h.7l.7-2,.7,1,.7,3.1.7-3.1.7-2.6.7,2,.7,3.6.7-1.5.7-6.6.7,5.1h.7l.7,1h.7l.7,2,.7-4.6.7,2.6.7-1.5.7.5.7,2,.7-5.6.7,7.7.7-7.1.7-.5.7,3.6.7,2.6.7-3.6.7.5.7,2,.7-4.1.7,2.6.7,2.6h.7l.7-1h.7l.7-2.6.7,2.6.7-4.1.7,2,.7-1,.7,1.5.7-1,.7,2.6.7.5.7,1,.7-2.6.7,2,.7-5.6.7,1.5.7,3.6.7,2,.7-3.1h.7l.7-2,.7,3.1h.7l.7-4.6.7,1.5.7,5.1.7-8.7.7,2,.7,6.1.7-1.5.7-1,.7,1,.7-4.1.7,7.7.7-9.2.7,3.6.7,1h.7l.7-3.1.7,5.6.7-1.5.7-3.6.7,3.1.7-2,.7,4.1.7-4.1.7-2,.7,1.5.7,2,.7,1,.7-3.6.7.5.7.5.7-1.5.7-.5.7,3.1.7-3.6.7,5.1.7-2.6.7,2.6.7-2,.7-5.6.7,3.6.7,3.6.7,1,.7-4.1.7,3.1.7-2,.7-.5.7.5.7,2,.7-1,.7,1.5.7-5.1.7,5.6.7-1,.7-3.6.7,2.6.7,1,.7-2,.7,1h.7l.7.5.7-3.6.7-.5.7,2,.7-2,.7,2,.7,3.6.7-3.1.7,1,.7,1,.7-3.6.7,2.6.7-.5.7,3.1.7-2,.7-1.5.7,4.6.7-7.7.7,6.1.7-2,.7,2.6.7-5.6.7,2.6.7,1,.7,2,.7-4.1.7,5.1.7-2.6.7-1.5.7,4.1.7-2.6.7-.5.7-.5h.7l.7-3.6.7,5.6.7-2h.7l.7-.5.7,2,.7-3.1.7-1,.7,4.6.7-2,.7-7.1.7,5.6.7,1,.7.5h.7l.7-3.6.7,2,.7,3.1.7-2.6.7-.5.7,2,.7-3.1.7,1,.7,1.5.7-1h.7l.7-2.6.7,2.6.7-2,.7,3.1.7-1.5.7,4.6.7-2.6.7,2,.7-2,.7-.5.7-1,.7,2,.7.5.7-1.5.7-3.6.7,2,.7,4.1.7-3.1.7,4.1.7-3.1.7.5.7-.5.7-2.6.7,1.5.7,3.1.7-2,.7,2,.7-2.6.7,2,.7-.5.7-2,.7,1h.7l.7,1.5.7-2,.7.5.7-2,.7,3.6.7-4.6.7,2,.7.5.7-2.6.7,4.1.7-.5.7,2,.7-4.6.7-1,.7,2,.7.5.7,1.5.7-1,.7.5.7-2,.7,3.6.7-2,.7.5.7-1.5.7,2,.7-1,.7-2,.7-.5h.7l.7,4.6.7-6.1.7,3.1.7,3.1.7-2.6.7,2.6h.7l.7-2.6.7,1.5.7-.5.7-1.5.7-4.6.7,5.1.7,2,.7-2,.7-1,.7,1,.7,1,.7.5.7-1.5.7-3.1.7,6.6.7-2.6.7,1,.7,1.5.7-3.6.7-.5.7,4.6.7-5.1.7,4.1.7-2.6h.7l.7-1,.7,2.6.7-3.1.7-1,.7-.5.7,5.6.7-.5.7-6.1.7,2.6.7-1.5.7,4.1.7,1,.7-4.1.7,2.6.7,1.5.7-2,.7,3.1.7-45.9.7-138.3"/>
  <g class="cls-7">
    <text class="cls-4" transform="translate(25 693)"><tspan class="cls-10" x="0" y="0">4</tspan><tspan class="cls-11" x="12" y="0">↓</tspan></text>
  </g>
  <g class="cls-7">
    <text class="cls-4" transform="translate(844 893)"><tspan class="cls-10" x="0" y="0">14.7Mb </tspan><tspan class="cls-11" x="84" y="0">↑</tspan></text>
  </g>
  <path id="_7" data-name=" 7" class="cls-9" d="M20,1348.5l.7,121.8.7,1.2.7-.2.7-.2.7-.6.7-.4.7.4.7.2.7.6.7-.8.7.2.7-1.2.7,1.7.7-2.1.7,2.3.7.6.7-1.4.7-.4.7,1.2.7-.2.7-1.7.7,1.7.7-.6.7-.4.7-.2.7.2.7.4.7-.8.7,1.4.7-.8.7-.2.7.4.7-.4.7,1.4.7-2.1.7.2.7.2.7.8.7.6.7-2.1.7,1,.7.2h.7l.7-.6.7.8.7-2.1.7,2.1.7-1.4.7,1.2.7-1.7.7,1.4.7-.8.7-.6.7,2.1.7.4.7-.4h.7l.7-.8.7,1,.7-1.4.7.8.7-.8.7.8.7-.8.7,1.4.7-1,.7,1.2.7-1.2.7,1,.7-.6.7-1.2.7.8.7-.2.7,1.2h.7l.7.2h.7l.7-1.4.7.2.7.2.7-.2.7-.2.7-.2.7,2.3.7-1.7h.7l.7.8.7-1.2.7-.6.7,2.1.7-1,.7.8.7-.2.7-.2.7,1,.7-.2.7-1.4.7,1.2.7-1.7.7,1.2.7.2.7-.6.7-.2.7.8.7-.8.7.6.7-.8.7.6.7.6.7-.8.7-.4.7-.6.7.6.7.2.7-.2h.7l.7.8.7.4.7-.8.7.4.7-1.7.7.2.7.8.7-.4.7,1,.7-.4.7-.2.7.6.7-1.4.7.8.7.4.7-.4.7-1.4.7,1.9.7.2.7-.6.7.2.7-1.7.7,2.3.7-1.9.7.8.7.4.7-.4.7.6.7-2.1.7,1.2.7.2.7.8.7-1,.7,1.7.7-.6.7-.8.7.6.7.4.7-1.2.7,1.2.7-.8.7-.4.7,1.2.7-.2.7-.8.7-.8.7.6.7.4.7.2h.7l.7,1.2.7-2.5.7,1.7h1.3l.7-1.9.7,2.1.7.6.7-1.4.7.6.7-.2.7.2.7-1.4.7.4.7.8.7-1.2.7-.2.7,2.1.7-.6.7-.4.7-.4.7-.8.7.6.7,1.4.7-2.5.7.6.7,1.7.7.2.7-.4.7.6.7-1,.7,1.2.7-3.1.7,1.2.7,1,.7-1h.7l.7.6.7,1,.7-.8.7-.4.7.2.7-.2.7.4.7.6h.7l.7-.2.7-.8.7.2.7,1,.7.6.7-1.2.7.8.7-1,.7-.4.7-.6.7.6.7-.2.7,1,.7-3.3.7,2.1.7.8.7.6.7-1.2.7.2h.7l.7-.4.7.6.7-.6.7.6.7-.8.7,1.7.7-.2h.7l.7-.2.7,1,.7-2.7.7,2.1.7.2.7-.2.7-.8h.7l.7-.4.7.2.7-.2.7-.4.7-.2.7,1.2.7-.2.7-.2.7.4.7-.4.7,1,.7-1.4h.7l.7.6.7-1,.7-1.4.7,2.5.7-.8.7,1,.7-.2.7-.8.7,1.4.7-.8.7-.4h.7l.7.2.7-1h.7l.7,1,.7-2.1.7,1.9.7.4.7-.2h.7l.7-1,.7,1.4h.7l.7,1,.7-3.3.7.4.7,2.7.7-.4.7-.4.7.8.7-2.5.7,2.5.7-1.2.7-.2.7.6.7.2.7-2.1.7,1.9.7.8.7-2.5.7,2.1.7.4.7-1,.7.2.7-.4.7,1.2.7-1.2.7-.8.7.4.7-.2.7.4.7,1,.7.2h.7l.7-.4.7.8.7-1.4.7-.8.7,1.2.7-.2.7.4.7.2.7-.8.7.8.7-1.4.7,1.9.7-.4h.7l.7-.2.7.4.7-.4.7-.6.7.6h.7l.7-.6.7.4.7-.4.7-1.2.7,1.2h.7l.7,1.2.7-2.3.7,2.9.7-2.3.7.4.7.2.7.2.7,1.4.7-.8.7-1.2.7,1,.7.6.7-.6.7-1,.7-1.7.7.8.7,1.7.7-.8h.7l.7-.2.7-.4.7-.2.7,1.9.7-.6h.7l.7-.6.7.4.7.6.7-.6.7.2.7.2.7,1.2.7-1.4.7.6.7.4.7-1.7.7,1.7.7.2.7-.6.7-1.7.7,2.1.7-1.7.7,1,.7.6.7-2.5.7.6.7,1,.7.8h.7l.7-.8.7.6.7,1,.7-.2.7-2.1.7.8.7-.6.7.6h.7l.7-1.4.7,1.9.7-.8.7.8.7-1,.7.4.7-.8h.7l.7-.6.7,2.1.7-1.2.7-.6.7-.2.7.4.7,1.7.7-.2.7-.8.7,1,.7-.2.7-.2.7.6.7-2.5.7.2.7,2.1.7-1.9.7.2.7-.8.7,1.4.7,1,.7-.6.7-.4.7.4.7-.8.7.6.7.2.7-.4.7-.4h.7l.7,1,.7-2.1.7,2.7.7-1,.7-.6.7.8h.7l.7-1.2.7,1.9.7-.4.7-1.7.7-.6.7,3.1.7-2.3.7.6.7,1.7.7-1,.7-.8.7,1,.7-1,.7.6.7-.2.7.4.7-1.4.7,1.7h.7l.7-1,.7.6.7,1,.7-.8.7-.2.7-.2.7-1.2.7-.6.7,3.3.7.2.7-.4.7-1.7.7,2.1.7-2.3.7.8h.7l.7.2.7-.2.7,1,.7-1,.7.2.7-1.9.7,2.3.7-1,.7.4.7-.2.7-1,.7.6h.7l.7.2.7.6.7,1.2.7-3.3.7,2.1.7.6.7-.8.7.6.7-.8.7-.8.7.2.7,2.3.7-1.7.7.8.7,1,.7-1.7.7-.6.7.6.7,1.2.7-1.4.7,2.1.7-1.7.7.4.7-.8.7-.6.7.2.7,1.9.7-1,.7-.2.7.8.7-.4.7-.8.7-.8.7,2.5.7-.6.7.2.7-.6.7-1.7.7,1.4h.7l.7,1.4.7-.8.7-.2.7-.8.7,1.7.7-1.9.7,1,.7-1.7.7,1h1.3l.7.6.7-.8.7,2.1.7-1.9.7,1.9.7-1.9.7.4.7.6h.7l.7-.8.7.2.7-.8.7,1,.7-.4.7.2.7.4.7-.8.7,1.4.7,1.4h.7l.7.2h.7l.7-.2.7-1.7.7.4.7,1,.7.2.7-1,.7.2.7,1,.7-1.9.7.4.7-2.3.7.2.7,2.5h.7l.7-.8.7,1.4.7.4.7-.4.7.2.7.2.7-3.9.7,1,.7.8.7-2.3.7.6.7-.4.7,1,.7.2.7.2.7,1.9h2l.7.2.7-.2.7-.4h.7l.7-.2.7-.4.7,1,.7-.2h.7l.7-.6.7.2.7-.6.7-.2.7,1,.7-.8.7.8.7-1.2.7.4.7.4.7,1,.7-.4.7-.8.7.4.7-.2.7.2.7.2.7.6h.7l.7-2.1.7-.4.7.8.7.4.7,1h.7l.7-.6.7-.6.7-2.1h.7l.7,2.1.7,1.7.7-.2.7.6.7-1,.7-2.9.7,1,.7,2.5.7-1.4.7-1,.7-1.2.7,2.5.7.6.7.8.7-1,.7.2.7-.4.7-.8.7.6.7-.8.7.4.7-1.9.7.4.7,1.9.7.6.7.2.7-1.9.7-.6.7-.4h.7l.7,1.4.7.8.7,1.2.7-1.9.7-.2.7-1.2.7,1.7.7-1.9.7,2.3.7,1,.7.2.7.2.7-3.7.7-1.9.7.6h.7l.7-.4.7,2.7.7.2.7.6h.7l.7-2.3.7,2.7.7-2.1.7-.6.7-2.7.7.2.7-.8.7,2.5.7,3.3.7,1.2.7-2.5.7-1.9.7,1.4.7-1.2.7.4h.7l.7-.2.7.6h.7l.7,1.4.7.4.7-.8.7-1,.7-.6h.7l.7.2h.7l.7-.6.7-1,.7,2.3.7-.6h.7l.7,1,.7-1.7.7.2.7,1.2.7-.6.7,1.9.7-1.4.7,2.3.7-.8.7,1,.7.8h1.3l.7.2h1.3l.7-.6.7.6h2.7l.7-.4.7.2h.7l.7-.2.7-.6.7-.4h.7l.7-1.9.7-.2.7,2.1.7-1.4.7,1.2h.7l.7.6.7-1.4.7.6.7.6.7-1.4.7,1,.7.8h.7l.7.6.7-.2h.7l.7.2.7-.6h.7l.7-.8h.7l.7.6.7.4.7-.6h.7l.7.4.7.4.7-.2.7-.2.7-.6.7,1.2h2l.7-.2.7-2.3.7,2.1.7.6.7-.4.7-1.7.7-.4h.7l.7,1,.7.2.7.2.7.6.7-2.1.7-1.4.7.4.7,1.7.7-.8.7.4h1.3l.7,1.4.7-.2.7.6.7-.2.7-.2.7.6h.7l.7-1h.7l.7,1.2.7-.8.7-.6.7,1,.7-.4.7.4h.7l.7-.2.7-.2.7.2.7-.2.7.6.7-.6.7-1,.7-.6.7-.8.7-.2.7.2.7-1,.7,1.4.7.8h.7l.7-1,.7.8.7-1.4.7,1,.7-1.7.7-.2.7,2.5.7-1.2.7.6.7-.6.7-1,.7,1.4.7-.2.7-1.4.7,1.9.7-.6.7.6h.7l.7.6.7-.6.7-.2.7.4.7,1,.7-.4h.7l.7-1,.7-.6.7,1.7.7-.4.7-2.1.7,2.5.7-1,.7-.2.7.2.7-.4.7,2.3.7-1,.7-.8.7-.4.7.6.7.2.7-1.4.7,1.4h.7l.7-.4.7.4.7-1.2.7.8.7-2.1.7,1.2.7,1.9.7-.8.7-1.7.7,1.2.7-.2.7-.2.7-1.7.7,3.3.7-.8.7-.6.7.6.7-.6.7.2.7.8.7-.6.7.8h.7l.7-.6.7.4.7-.6.7-.2.7-.2.7,1.9.7-2.3.7.4h.7l.7-.2.7,1,.7-1.4.7.6.7,1,.7-2.7.7,2.9.7-1,.7.6.7.2.7-1.9.7,1.2.7.4.7-1.7.7,1h.7l.7-.8.7,1.7.7-.2.7-1.2.7.6h.7l.7,1.7.7-1.9.7.8.7-2.1.7.4.7,1.7.7-.4.7.2.7.6.7.8.7-1.7.7.8.7-.6.7-.2.7-1,.7,1.2.7-.8.7-.2.7,1.7.7-.2.7-1.4.7.8.7.4.7.2.7-1.2.7,1.9.7-1,.7.2.7-1,.7.4.7.4.7-.8.7,1.4.7.4.7-.8.7.8.7.4.7-2.3.7.2.7,1.4.7-1,.7-1.2.7.4.7.4.7.6.7.6.7-.8.7-1.4.7.8.7,2.1.7-.6.7-.8.7-.2.7.4.7-1.7.7,1.4.7-.4.7,1.4.7-.4.7.2.7-1h.7l.7-.6.7.4h.7l.7,1h.7l.7-1.9.7,2.5.7-.8.7-.4.7-.4.7-1,.7,1.2.7-1,.7,2.1.7-3.5.7,1.9.7,1.4.7-1.9.7.2.7,1.2.7-.2.7.8.7-.6.7.6.7-.6.7-1,.7,2.3.7-.8h.7l.7-.6.7.2.7-.2.7.4.7,1,.7-.6.7-1.4.7,2.1.7-1.9.7-.6.7.8.7.4.7.2.7-.4.7,1.2.7-1.2.7.8.7-1,.7-1,.7.6.7-.4.7,2.1.7-1.9.7.4.7-1.9.7,2.5.7-1,.7,1,.7-.4.7-.6.7,2.5.7-1.9.7.4.7.4.7.6.7-1.2.7-1.2.7-.4.7,2.3.7-.8.7.4.7-.6.7.6.7.8.7-.6.7-.4.7-1,.7,1.4.7-1,.7,1,.7-.4.7.6.7-.8.7,1.7.7-.4.7.2.7-1.4.7.6.7-.6.7.8.7-.2.7-.2.7-.6h.7l.7.8.7.2.7.4.7-1,.7,1,.7-3.5.7,1.9.7,1,.7.8.7-2.1.7,1.7.7-1,.7,1.4.7-.2.7-.8.7,1.9.7-2.5.7,1h1.3l.7-.8.7-.4.7,1.7.7-.6.7,1.2.7-2.1.7,1.4.7-.4.7-.8.7-.2.7,1.4.7-.4.7-.4.7.2.7-.4.7,1.2.7-1.2.7.2.7,1,.7-1,.7-.6.7.6.7.6.7-1h.7l.7-.8.7,1,.7.8.7.8.7-2.1.7,1.2.7-1.4.7,1,.7.2.7-1,.7,1.4.7-1.9.7.2.7.2.7.2.7.6.7.6.7-.6.7.6.7-1,.7.8.7-2.1.7,1,.7.6.7-.2.7.2.7-.2.7-.2.7.4.7-.2.7-1.2.7,1.2.7.6.7-.6.7-1,.7,2.1.7-1.2.7-.4.7,1,.7-2.1.7-.6.7,2.1.7-.2.7,1.2.7-1.9.7,1,.7.6.7-.6h.7l.7,1.2.7-.4.7-2.3h.7l.7,1.9.7-1.9.7.8.7,1.9.7-1.4.7.6.7.8.7-1.2.7-.2.7-.4.7.2h.7l.7,1.2h.7l.7.4.7-1.4.7.2.7-.6.7,1.2.7-1.2.7.8.7-.2.7,1.7.7-2.3.7,1.9.7-1.4.7.6.7.6.7-1,.7,1,.7-1.9.7,1,.7.2.7-1.9.7,1.7.7-.8.7,1.4.7.4.7-.6.7-.4.7-.4.7.6.7-.6.7-.4h1.3l.7,1.4.7-1,.7.6h.7l.7.4.7-.6.7.4.7-1h.7l.7,1.4.7-1.9.7.4.7.6.7-.2.7.4.7-1,.7.6.7-.2.7-.2.7.6.7.4h.7l.7-1,.7.4.7.4.7-1,.7-.2.7,2.1.7-2.5.7,1.9.7-1.2.7.4.7.2.7,1.7.7-1.9.7.2.7.4.7,1.2.7-2.5.7,1,.7-.6h.7l.7-.8.7.8.7-.2.7,1.7.7-1.7.7.4.7-.8.7,1.9.7-1.2.7-.2.7,1,.7-2.3.7,2.5.7-.6.7-.8.7,1.9.7-.8.7.2.7-1.9.7,1.9.7-1.2.7-.2.7.2.7.4.7-.2.7.6.7-1.2.7,2.1.7-.2.7-.6.7,1,.7.2.7-.6.7-.8.7-.6.7.6.7.2.7,1,.7-1.2.7.6.7.2.7-1,.7-.2.7,1h.7l.7-.8.7-.8.7,1,.7-1,.7-.6.7,2.3.7-.4.7.6.7-.8.7.2.7-.6.7.8.7,1.7.7-1,.7-.2.7-.6h1.3l.7.8h.7l.7-.2.7-.2.7.4.7-.8.7.2.7-1,.7.6.7.2.7-1.2.7,1.9.7-.8.7.2.7.6.7-1.2.7.4h1.3l.7,1,.7-.2.7-1,.7,1.2.7-.4.7-.6.7,1.2.7-.6.7-.4.7-.6.7,1,.7-.2h.7l.7-.6.7.8.7.6.7-.6.7-.4.7.8.7-1.2.7.2.7-.4.7-190.3.7,1.4.7-2.5.7-.2.7,147.8"/>
  <g class="cls-7">
    <text class="cls-4" transform="translate(25 893)"><tspan class="cls-10" x="0" y="0">5</tspan><tspan class="cls-11" x="12" y="0">↓</tspan></text>
  </g>
  <g class="cls-7">
    <text class="cls-4" transform="translate(844 1093)"><tspan class="cls-10" x="0" y="0">13.9Mb </tspan><tspan class="cls-11" x="84" y="0">↑</tspan></text>
  </g>
  <path id="_6" data-name=" 6" class="cls-9" d="M20,1143.6l.7,126.9.7,1,.7-.4.7-.4h.7l.7-1.5.7-1.5.7,1,.7,1.2.7-.2.7,1,.7-3.3.7,2.7.7-2.5.7-.4.7,2.7.7-.4.7-.2.7-.2.7-.2.7.8h.7l.7-.4.7.6.7-.8h.7l.7,1.7.7-1,.7-.4.7.2.7.2.7-.2.7.4.7-1.5.7,1.7.7-.8h.7l.7,2.1.7-2.1.7-1,.7,3.3.7-1,.7.6.7-.2.7-1.7.7,1,.7-.8.7-1.5.7,3.1.7-1.7.7.6.7-.4.7,1.5.7-1.7.7,1,.7-.4.7-1.5.7,1.9.7-1.2.7,1.7.7-.6.7-.8.7.8h.7l.7-1.7.7,2.1.7-.4h.7l.7-1.2.7,1.2.7.2.7-2.9.7,1.9.7-2.3.7,1.9.7,1,.7-.6.7.2.7-.4.7,1.9.7-.2.7-1.5.7-.8.7,2.1.7-.2.7-.8.7-.2.7-1.2.7,1,.7.6.7.4h.7l.7-1,.7-1,.7,2.1.7-.6.7-.6h.7l.7,1.9.7-1.5.7,1.7.7-1.9.7,1.5.7-.4.7-.6.7-.4.7,1,.7.2h.7l.7-.2.7-.2.7.4.7.4.7-1.2.7,1.9.7-1.9.7,1.5.7-1.7.7,1.9.7-.6.7-1.5.7-.6.7,2.7.7.2.7-1.5.7,1.2.7-1.9.7-.6.7.6.7.8.7-.2.7-1,.7-1.7.7,1.2.7,1.9.7-2.9.7,2.9.7-1.2.7-.6.7,2.5.7-1.2.7,1,.7-1.5.7,1.7.7-2.3.7.2.7-1.5.7,1.7h.7l.7.4.7-.8.7,1.5.7.2.7-1.2.7.2.7,1.2.7-1.2.7.2.7-.6.7-.4.7,1.2.7-.2.7.6.7-.2.7.4.7-2.1.7,1.5.7-1,.7,1.5.7-1.2.7,1.9.7-.4.7-.8.7-.6.7.8.7-.6h.7l.7,1.5.7-1.5.7.8.7-1.2h.7l.7.8.7,1,.7-1.2.7.8.7.6.7-1.2.7-.4.7.8h.7l.7-.4.7,1.5.7-1.9.7.4.7-.4.7-.2h.7l.7.6.7.2.7-.6.7.4h.7l.7,1.2.7-1.7.7,1.2.7-1.2.7.6.7-1.2.7,1.5.7-.8.7-.8.7,1.5.7-.2.7-1.5.7-.4.7,2.3.7-1.5.7,1.2.7-.2.7,1,.7-.6.7.4h.7l.7-1,.7-.2.7,1,.7-.6.7-.8.7,1.9.7-2.1.7,1.9.7-1.2.7,1.2.7.4.7-1,.7-.8.7,2.1.7-2.5.7.4.7,1.2.7.2h.7l.7-1.5.7.4.7.4.7.6.7.6.7-2.5.7,2.1.7-1.9.7,1.7.7-.4.7-.8.7.6.7.6.7-.8.7.8.7-.8.7,1,.7-2.1.7-2.5.7.4.7,4.4.7-2.1.7,1.9.7-.8h.7l.7-1.7.7.6.7,1.9.7-1.5.7-.2h.7l.7,1,.7-1,.7,1,.7-.2.7-.2.7-.2.7-1,.7,1.2.7-.2.7,1.7.7-1,.7-.8.7.2.7,2.5.7-1.2.7-1.5.7-.6.7,1.5.7-1,.7.6.7.2.7-1.2.7.2.7,1.2.7-.8h.7l.7-.8.7.8.7,1,.7-.6.7-1,.7,1.7.7-.8.7.4.7-.2h.7l.7.4.7,1h.7l.7-.6.7-.2.7.8.7-1.5.7,1.7h.7l.7-1.7.7-.6.7,1.5.7-.2.7.6.7-1.7h.7l.7,1.2.7-.2.7-1.5.7,1.9.7-.2.7,1,.7-.6.7-.2.7-2.5.7.4.7,1.2.7.4.7-.4.7.2.7-.2.7.2.7-.2.7.2.7.2.7,1.2.7-.2.7-1.9.7,1h.7l.7-.6h1.3l.7-.4.7.6.7,1.2.7-.6.7-.2.7-.6.7.8.7-1.7.7,1.2.7-.4.7,1.5.7.4.7-1,.7-.2.7,1,.7-2.1.7,1.5.7-.6.7.2.7.2.7-.2.7-1.9.7.6.7,1.9.7-.2.7-1.9.7,1.9.7.2.7-.6.7-1.5.7,2.1.7-.8.7.6.7.6.7-1.2.7.2.7,1.5.7-1.7.7.4.7.6h.7l.7-1.2.7,1,.7-1,.7.8.7-1.2.7,1.5.7-1.2h.7l.7,1.2.7-1.2.7.6.7-1,.7,2.3.7-3.1.7,2.1.7-.2.7-.8.7,1.2.7-.2.7-.6.7.6.7-1,.7,1.5.7-3.8.7,3.3.7.2.7-2.1.7,1,.7.8.7.4.7-2.1.7.2.7.6.7-1.2.7-.6.7,1.5.7,1.7.7-1.9.7.4.7-1.5.7,2.7.7-2.3.7,1.9.7-2.1.7,1.7.7-.4.7,1.2.7-.2.7-1.7.7.8.7,1.2.7-1,.7-1,.7.4.7-1,.7.8.7.8.7,1.2.7-1.5.7-1.2.7,2.1.7.2.7-2.3.7,1,.7.2.7-.2.7-.2.7-2.1.7,1.7h.7l.7,1.5.7-.2.7.6.7-1.5.7.2h.7l.7-.2.7.2.7.4.7.6.7-.6.7-.2.7.8.7-.8h.7l.7.2h.7l.7.2.7-2.3.7,1.7.7.4h.7l.7.4.7-.4.7.8.7-.8.7.2.7.2h.7l.7.8.7-1.2.7,1.2.7-1.7.7-.4.7,2.3.7-1.2.7.2.7-.2.7.4.7-.4.7-1.2.7,2.1.7-1.9.7-.8.7,1.2.7-.4.7,2.3.7-1.5.7-.2.7.6.7-1.2.7,1.5.7-.4.7-.2h.7l.7.4.7-.6.7.6.7.6.7-.6.7.2.7-.4.7-.8.7,1.7.7-1,.7.4.7-1.7.7,2.3.7-.8.7.8.7-.4.7-.6.7-.2.7-.8.7.4.7.2h.7l.7-.6.7.8.7.4.7-.8h.7l.7-.6.7-.6.7,1.9.7.2.7-.6.7,1.9.7-.2.7-2.3.7,1.5h.7l.7-.8.7.8.7-1,.7,1.9.7-1.9.7.8.7.8.7-2.3.7,1.5.7.4.7-1.7.7,1.2.7,1.5.7-1.2.7-1.9.7,1.5.7-.8.7,1.5.7-1.5.7-.8.7,2.7.7-1.5h.7l.7-.4.7,1,.7.2.7,1.5.7-3.1.7,1.9.7-.2.7-1.2.7,1,.7-.8.7,1.5.7-2.1.7,2.5.7-1.9.7,1,.7.4.7-1.7.7,2.1.7-1.5.7-.6.7.8.7.8.7-1.7.7.4.7-.2.7-.6.7,1.7h.7l.7.2.7-1.7.7,1.7.7-1.5.7,1.2.7.6.7-.8.7.8.7-.4.7-.8.7.4.7.8.7-2.1.7,1.2.7-1.2.7-2.7.7,1.9.7.6.7.8.7,1.7.7.6.7-1,.7-1.7.7.8.7-.8.7,1.2.7,2.1.7-.2.7-.6.7-1.5.7.8.7.2.7-1.7.7-.2.7-1,.7.4.7-.8h.7l.7-1.5h.7l.7.6.7,2.5.7.4h.7l.7-2.3.7,1.7.7-.4.7.4.7-.8.7,1.2.7-.6.7-1,.7.6.7.2.7.2.7.2.7-1.2.7.8.7-1.7.7-1.7.7.2.7,1.5.7.2.7-.6.7.4.7-.2.7,2.3.7-.8.7,2.7.7.6.7-.4.7.6h.7l.7-.2.7-.6.7.6.7-.8.7.6.7.8.7-.2.7-.2.7.4.7.2h.7l.7-.4.7-.6.7.2.7-.2.7-.2h.7l.7-.2.7-.6.7-.8.7,1.7.7.8.7-.8h.7l.7.8.7.2.7-.4h1.3l.7-.2.7-.4.7-1.2.7.6.7-1.2.7.4.7-.4.7.8.7-1.7.7.6.7,1.7.7,1.5.7.2.7-.6.7-.8.7-1.2.7-.4.7.8.7-.2.7,2.3h.7l.7.2h1.3l.7-2.1.7,1.9.7.2h.7l.7-.2.7-.6.7-.2.7.4.7.2.7-.2.7-.6.7-.2.7.6.7-.2.7.6h.7l.7-.8.7-.4.7.8.7.2.7.6.7-1.5.7,1.5.7-.2.7-1,.7,1.2.7-1.9.7-.2.7,1.7.7.2.7-.4.7-.2.7.8h2l.7-.2.7-.2.7.2.7-.2.7.2.7.2h.7l.7-.2.7.2.7-.2.7.2h2.6l.7-.4.7.4.7-.8.7-.4.7.2.7.4.7.6h1.3l.7-.2.7-.6.7-.4.7-.6.7-1,.7,1,.7,1.5.7.2.7-.2.7.4.7-1.5.7.4.7.6.7.2.7.2h3.3l.7-.6.7-.4.7-.2.7,1.2.7-.8.7.6.7-.6.7-.2.7.2.7.6h.7l.7.2.7-.6.7.6h1.3l.7-.6.7.2h.7l.7-.4.7.4.7-1.2.7-1.2.7,1.2.7,1.2.7.2h1.3l.7-1.2.7-.4.7.8.7.6.7-.6.7-.4h.7l.7-1.5.7,1.9.7,1h2l.7-.8.7-.8.7.2.7.8.7-.2.7-.2.7.4.7-1.9h.7l.7,2.3h.7l.7.2h.7l.7-1,.7.4.7.4.7.2.7-.8.7-.2h.7l.7.6h.7l.7-.2.7-.8.7.2.7.2.7.6.7.2.7-.6.7-.4h.7l.7,1,.7.2.7-.2.7-.4.7.6.7-1.7.7-.2.7,1.2.7.6.7-.6.7.6.7-.2h2l.7.2.7-1.7.7-2.3.7,1.5.7,1.5.7,1,.7-.2h.7l.7-1.5.7.2.7,1.2.7.2h4.6l.7-1,.7.2.7.6.7-.4.7.2.7-.6.7-.4.7,1.2h1.3l.7.2.7-.2.7-.2.7.2.7.2h.7l.7-.6.7.4.7-.2.7-.6.7.2h.7l.7-1.5.7-1.2.7,2.9.7.4.7-.2.7.2h.7l.7-.4.7-1.2.7.4.7,1.2h.7l.7-1,.7-.2h.7l.7-1.7.7,2.3.7.8h.7l.7-.6.7.6.7-1,.7.4.7-1.2.7.8.7.4h.7l.7-.4.7.4h.7l.7-.4.7-1,.7-.4.7.8.7-1,.7-1,.7.8.7.8.7-1.9.7,1.7.7,1,.7-1.9.7-.8.7,1.2.7-.8.7,1h1.3l.7.2h.7l.7.6.7-2.5.7-.4.7,1.2.7-.2.7.2.7.8.7-1.7.7,1.9.7-.4.7-1,.7.6.7-.6.7-.6.7,2.5.7-1.5.7,1,.7-1.9.7,2.1.7-2.3.7,1.9.7-1,.7,1.9.7.6.7-3.1.7-.6.7,2.5.7-1,.7,1,.7-.6.7,1.2.7-.8.7-.4.7.6.7-.8.7-.8.7,2.1.7-.6.7-.2.7.6.7-.2.7-1.7.7,1.2.7,1,.7-.8.7,1.9.7-3.5.7,3.1.7-.8.7-1.9.7,1.5.7-.2.7-.2.7.8.7.2.7-1.5.7-1,.7,1.9h.7l.7.4.7-1.7.7,1,.7.4h2l.7-.8h.7l.7.8.7-.4.7.4.7-.8.7.2h.7l.7-.8.7,1.9.7-1.7.7,1.2h.7l.7-1.2.7.6.7-1.7.7,1.7.7-1.2.7.4.7,1.5.7.6.7-1,.7-.8.7-.4.7.4.7,1,.7-.2.7-.8.7.6h.7l.7-.2.7-1,.7,1.9.7-.8.7-1.2.7,2.5h.7l.7-1h.7l.7-.2.7-.8.7,1.2.7-.4.7-1,.7.2.7,2.1.7-1.2h.7l.7,1,.7-1,.7-1.2.7,1.2.7,1.2.7-1,.7-1,.7,1.5.7-1.5.7-.6.7,1.5.7.4.7.6.7-.8.7.6.7-.6.7.2.7-.4.7-.6.7.8.7-.6.7.2.7.8.7.2.7-.6.7.2.7-.8.7-.8.7,1.5.7-.2.7.8.7-.2.7-1.5.7-.2.7,1.7.7-1.5.7,1.2.7-.6.7.8.7.6.7-1.9.7-.2.7,1.2.7.4.7-.2.7-.8.7.6.7.4.7-.6h.7l.7,1.2h.7l.7-.8.7-.6h.7l.7-.4.7-1.7.7,2.7.7-2.3.7,1.9.7-.6.7.8.7.2.7.6.7-1.5.7,1.7.7-.4.7.6.7-2.5.7,1.7.7-2.1.7.4.7,1,.7-1,.7,1.2.7-.6.7-.2.7-1.2.7.6.7,1.9.7-.6h.7l.7-.4.7.2.7-.8.7,1.5.7-1.7.7,1.5h.7l.7-1.2.7.4.7-1.2.7,1.5.7.4h.7l.7.2.7.4h.7l.7-1.2.7.6.7-.4.7,1.5.7.8.7-2.1.7.6.7-.8.7,1.2.7-1.7.7-.2.7,1,.7.6.7-.4h.7l.7-1.2.7-.8.7,1.9.7-.2.7,1.9.7-1.9.7-.2.7-.6.7.6.7-.4.7-.8.7,1.5.7.2.7-.2.7-.8.7.2h.7l.7.6.7,2.1.7-2.7.7-.8.7,1.5.7-1.5.7,1.2h.7l.7-.6.7.2.7-.4.7,1,.7-1.7.7,1,.7.6.7.8.7-2.9.7,1.9.7-.2.7.8.7-.6.7-.4.7-1.2.7,2.5.7-2.3.7,1.5.7,1.2h.7l.7-1.5.7.6.7,1,.7-.6h.7l.7-.6.7.8.7-.4.7-.8.7,1,.7-.8.7,1.2.7-1.2.7-.2.7.6.7-1,.7,1,.7-.6.7.6.7,1,.7-1.9.7.6.7-.6.7.6.7.2.7.2.7.4.7.2h.7l.7-.4.7-.6.7-.4.7.8.7-.4.7-.2.7.2.7.4.7-2.1.7,1.2.7-.6.7.8.7-.6h.7l.7-.4.7.6h.7l.7-1.7.7,3.1.7-.8.7.6.7-.4.7-1.2.7,1,.7,1.2.7-1,.7-1.2.7.4.7.6.7.4.7-.8.7-.2.7-2.1.7,3.5.7-2.5.7,2.5.7-.6.7-1.2.7.2.7.4.7.6.7,1,.7-.6h.7l.7.8.7-1.2.7.2.7.6.7-2.3.7,1.2.7-.6.7.6.7.4.7.4.7.2.7-.8.7-.6.7,1.5.7-.2.7-.6.7.6.7-.4.7-1.2.7,1,.7-.8.7,1,.7-.4.7.6.7-.8.7,1.7.7-.6.7-.8.7-.4.7.4.7,1,.7-1.5.7-.6.7.2.7-1,.7,1.2.7,1.2h1.3l.7-1.2.7,1h.7l.7.4.7-1.7.7,3.8h2.6l.7-60.8.7-134,.7,161"/>
  <g class="cls-7">
    <text class="cls-4" transform="translate(25 1093)"><tspan class="cls-10" x="0" y="0">6</tspan><tspan class="cls-11" x="12" y="0">↓</tspan></text>
  </g>
  <g class="cls-7">
    <text class="cls-4" transform="translate(844 1293)"><tspan class="cls-10" x="0" y="0">13.9Mb </tspan><tspan class="cls-11" x="84" y="0">↑</tspan></text>
  </g>
  <path id="_5" data-name=" 5" class="cls-9" d="M20,898.3l.7,171.2.7,1.1.7-2.4h.7l.7.8.7,1.3.7.8.7-1.9.7.3.7-.3.7,1.1.7-.3.7-1.3.7.8.7.3.7-.5.7-.8h.7l.7,1.1.7-1.3.7,1.6.7-.8.7-.5.7,1.3h.7l.7-1.3.7-1.1.7,1.1.7.8.7-1.1.7,2.4.7-1.3.7.8.7-1.1.7-.3.7,1.1.7.5.7-.8.7-1.3.7-.3.7,1.9h.7l.7.8.7-.5.7-.3h.7l.7.3.7-1.1.7.5.7-.5.7,1.9.7-2.1.7-.5.7,1.1.7-1.1.7.3.7,1.9.7-1.9.7,1.3.7-.8.7.5.7,1.1.7-1.9.7-1.3.7,1.1.7,1.9.7-2.4.7,1.3.7.3.7-1.6.7,1.3.7,1.9.7-2.9.7,2.1.7-1.9.7-.5.7,1.6.7-.8h.7l.7,1.3.7-.3.7-.5.7.3h1.3l.7-1.3.7,1.6.7-.3.7-.8h.7l.7-1.1.7.3.7,1.9.7-1.6.7,1.6.7.3.7-2.4.7,2.9h.7l.7-4,.7,1.6.7,2.1.7-.8.7-.8.7-.8.7.8.7,1.3.7-2.4.7,2.7.7-1.9.7,2.7.7-1.1.7-1.3.7.3.7.3.7-.3.7.3h.7l.7-2.4.7,2.1.7-1.9.7,2.1.7-.3.7.5h.7l.7-.8.7.3.7.8h.7l.7.3h1.3l.7-.5.7.8.7.8.7-1.3.7-.5h.7l.7.5h.7l.7-.5.7.8.7-1.6.7,1.9.7-.5.7-1.3.7,1.3.7,1.1.7-.3h.7l.7-.8.7-.3.7-1.1.7,2.4.7-.8.7-2.4.7,4.3.7-2.1.7-1.9.7,1.1.7,1.1.7-1.3h.7l.7-.5.7-1.3.7,3.5.7-1.9.7,1.1.7-1.3.7,2.1.7-.5.7-.8.7-.8.7,1.3.7-1.9.7.5.7.8.7,1.1.7-.8.7-.8h.7l.7-.3.7.3h.7l.7-1.3.7.3.7,1.9.7-1.3.7,1.9.7,1.6.7-2.7.7.5.7-1.3.7-.3.7,1.3h.7l.7-1.9.7,2.9.7-1.1.7,2.4.7-.5.7-.8.7-1.3.7.8.7.5.7.8.7-1.9.7.5.7-.5.7-.3.7.5.7-.5h.7l.7.3h.7l.7.5.7.3h.7l.7-1.3.7-.3.7.8.7.8.7-1.3.7-.3.7,1.9.7-.5.7-.3h.7l.7,1.3.7-1.3.7-.3.7,1.1.7-1.3h.7l.7.8.7-2.4.7,1.9.7.3.7.3.7-.5.7-.3.7,1.3.7-.8.7.8.7-.5.7,1.3.7-.5.7-2.4.7,2.4.7-1.6.7,2.4.7-1.3.7-.8.7,1.1.7-1.9.7,2.4h.7l.7-1.1.7.3.7.3.7-.3.7-2.1.7.8.7-.3.7,1.6.7-.3h1.3l.7-.3.7.3.7.8.7-1.6.7.8.7-.3.7.5.7-1.6h.7l.7,1.3.7-1.1.7.5.7-1.9.7,1.9.7.8.7.8h1.3l.7-3.2.7,4,.7-1.6.7-1.6.7,1.6.7-1.3.7.8.7.8.7.5.7-.8.7-1.3.7,1.3.7-3.2.7,1.6.7,1.3h.7l.7.5.7-.8.7,1.9.7-1.9.7,1.6.7-3.5.7-.8.7,2.1.7,2.1.7-2.1.7-.8.7-1.1.7,2.1.7.8.7.5.7-.3.7-.5.7-1.1.7-1.6.7,1.3.7,1.1.7.5.7-.8.7-.5.7,1.9h.7l.7-.3.7.3.7-.3.7-.5.7-.8.7,1.6.7-1.6.7-.3.7-.3h.7l.7.5.7.5.7-.3.7-.3.7,2.1.7.3.7-3.2.7.8.7-.5.7,2.4.7-1.6.7-.3.7,1.3.7.3.7-.8.7.8h.7l.7-.8.7,1.1.7-2.9.7,1.3.7-.5.7,1.1h.7l.7.5.7-.3.7.8.7-2.4.7,1.3.7-.3.7-.8.7,1.9h.7l.7-.5h.7l.7.5.7-.8.7.3.7.8.7-1.9.7,2.7.7-1.9.7-1.1.7-.8.7,1.6.7.8.7.3.7.5.7-.3.7-.8.7.3h.7l.7-.8h.7l.7-.5.7,1.3.7-.5.7-.5.7.5.7-.8.7.8.7-.8.7,1.9h.7l.7-1.6h.7l.7.5.7.8.7-1.1.7.3.7-1.1.7.5.7.3.7,1.1.7-1.3.7,1.3.7-2.1.7.5.7,1.6.7-.8.7-.5.7,1.3.7-1.1.7-.5.7-1.6.7,1.6.7-.5.7.5.7.8.7.3.7.8.7-2.1.7,2.4.7-2.7.7,1.6.7-.5.7,1.6.7-.5h.7l.7-1.1h.7l.7,1.6.7-1.3.7.5.7-2.1.7.5.7,2.9.7-.8.7-1.6.7,2.4.7-1.3.7-.5.7.5.7.5.7-2.1.7.3.7,2.1.7-.8.7-.3.7-.8h.7l.7.8.7,1.6.7-1.6.7,1.3.7-1.3.7-.3.7,1.3.7-.5.7-1.1.7.3.7-1.1.7,1.6.7-1.9.7,3.5.7-.8.7-1.6.7-1.1.7,1.9.7-2.4.7,2.4.7-2.4.7,1.9.7-.3.7-.3.7.8.7-1.3.7.8.7-1.9.7,1.9.7.3.7-1.6.7-.3.7.8.7-.8.7,1.6.7,1.9.7-4,.7.3.7.8h.7l.7,2.1.7-2.7.7,1.3h.7l.7-.3.7-.3.7,2.9.7-2.4.7,2.1.7-2.9.7.8.7.3.7-.3.7.3.7-1.3.7,2.1.7-.5.7.3.7-3.5.7,3.7.7-.8.7.5h.7l.7-.5h.7l.7-.5.7,2.4.7-1.6.7-1.9h.7l.7,2.7.7-.5.7.8h.7l.7-.5.7-.5.7-.5.7-1.3.7,2.7.7.3.7-.8.7.3.7-.8.7-.5.7-.5.7,2.4.7-1.6.7.5.7-.3.7-.8.7,1.1.7.5.7.8.7-3.5.7,2.9.7-2.1.7.3.7-.5.7,1.6.7,1.1.7-.3.7-.5.7-1.9.7,1.1.7.5.7,1.3.7-1.3.7,1.1.7-.5.7-1.6.7,1.6.7-2.4.7,3.5.7-3.7.7,1.3.7,3.2.7-2.7.7-.8.7,2.7.7-4.5.7,1.1.7.8.7-1.6.7,1.1.7,1.3.7-1.1.7.8h.7l.7-.8.7.8.7.3.7.3.7-.8.7-.5.7,1.3.7-.3.7.5.7.5.7-.5.7-.8.7.3.7-.5.7.5.7,1.6.7-.5.7-.5.7.8.7-.8.7-.8.7.3.7.8.7.3.7-1.6.7-.5.7.3.7-1.1.7,1.6.7,1.1.7-1.3.7.5.7-.3.7,1.6.7-1.3.7.3.7,1.1.7-.5.7-.8.7-1.6.7,2.4h.7l.7,1.1.7-.5.7-1.6.7,1.1.7-.5.7-1.1.7,1.1.7-.8.7,1.9.7-1.6.7,1.6.7-1.1.7.8.7-.3.7.5.7-1.1.7-2.4.7,4,.7-1.3.7.3.7-.5.7-2.7.7.5.7,1.3.7-.3.7-.3.7,1.1h.7l.7-1.1.7,1.1.7-2.7.7,1.3.7-.3.7,2.9.7,1.1.7-1.9.7.5.7-1.3.7.5.7-.5.7,1.6.7-2.4.7-1.1h.7l.7,1.3.7-.8.7-.3.7,3.2.7-1.1.7-.5.7-.3h.7l.7,1.1.7-2.1.7-.3.7,1.1h.7l.7-1.6.7,2.7.7-2.1.7,1.9.7-1.3.7-.8.7,1.6.7.5.7.5.7-1.9.7-.3.7,1.9.7-1.9.7,1.3.7.3.7-2.4.7,4,.7-.8.7-1.1.7-.3.7.5h.7l.7,1.1.7.3.7-1.3.7,1.3.7-.5.7.3.7.8.7-2.9.7.3.7.8.7-.3.7-1.9.7,3.2.7-1.1h.7l.7,1.1.7-2.4.7,1.9.7-1.6.7,1.3.7-.3.7-2.1.7.8.7-1.1.7,2.1.7,1.3.7-.3.7-2.1.7.5.7-.8.7,2.4.7-3.7.7,3.2.7-1.1.7.5.7.5.7-2.4.7,2.7.7-.5.7,2.4.7-2.4.7-1.6.7,2.9.7.5.7,1.6.7-1.3.7.8.7-.5h.7l.7-.3h.7l.7.3.7-.3.7.8.7-.3.7-1.1.7,1.1.7.5h1.3l.7.3h.7l.7-.5.7-.5.7-1.3.7-2.1.7,1.9.7-2.7.7-2.9.7,1.6.7,3.2.7.3.7.3.7-.8h.7l.7-1.3.7,1.1.7-1.3.7-.8.7,1.9.7-.3h.7l.7-1.3.7-.3.7,1.1.7,1.6.7.5.7-.5.7,3.5.7-2.1.7-1.1.7-.5.7,1.1.7-.3.7-1.3.7-1.3.7,3.5.7-5.1.7,5.9.7.8.7.8.7-.5.7-1.1.7-.5.7,1.6.7-2.4.7,1.3.7.8.7.5.7-.8.7-.3.7.5.7.3.7-.8.7.8.7-.3.7-1.1.7.8.7-1.1.7-1.9.7,1.1.7,1.1.7.3.7-.5.7-.3.7,1.1.7,1.1.7-1.6.7,1.1.7.5h.7l.7.3.7-3.7.7,3.7.7-1.1.7.8.7-.5.7-.8.7.8.7.3h.7l.7-.8.7.3.7.5.7-.3.7.3.7.3.7-.3h.7l.7-.5.7.3h1.3l.7.5.7.3.7-.8h.7l.7.5.7-.5.7-.3.7-.3.7,1.1.7.3.7-.5.7.3.7-.5.7.8.7-.3h.7l.7-1.1.7.3.7-.3.7.3.7.3.7-1.6.7,1.1.7,1.1.7.3h1.3l.7-.3.7-.3h1.3l.7-.3.7.5.7-.3h.7l.7.3.7.3.7-1.3.7.3.7-.3.7.3.7,1.1.7-.8.7.5.7-.3.7-1.3.7,1.3.7.5.7-4,.7-.8.7-.3.7-.8.7,1.9.7,2.4.7-1.1.7.8.7.3h.7l.7-3.5.7.5.7,1.3.7-1.3.7,1.1.7-1.3.7,1.1.7,2.1.7,1.1.7.5.7-1.1.7-.8.7,1.3h.7l.7-.5.7-.8.7-.3.7,1.3.7-1.3.7-4.8.7,3.5.7-1.1.7,2.7.7-1.1.7,2.7h.7l.7-.3.7-1.9.7.3.7,2.1.7-.5.7.5h.7l.7-.3.7-4.3.7-2.7.7-2.7.7-2.9.7,7.5.7,2.9.7.5.7-4,.7,2.7.7-1.1.7.5.7,3.7.7-2.7.7-1.3.7-.3.7-.8.7.5.7,1.3.7.5.7-4.5.7,4,.7-1.9.7.3.7,1.3.7-1.9.7,1.6.7-1.1.7,1.3.7-.3.7.8.7-.8.7,1.1.7-.3.7-1.6.7.3.7,1.1.7-1.1.7.3.7-.8.7.8.7-2.1.7,4.3.7-3.5.7,1.6.7,1.1.7-.3h1.3l.7-1.1.7-.8.7.3.7,1.9.7-1.1.7.3.7-.3.7.5.7.3.7,2.7.7-1.9.7-.5.7-2.9.7,2.1.7,1.3.7-1.9.7,1.1.7-.5.7-.5.7.3.7.8.7-1.3.7-.5.7.3.7.3.7,1.6.7-1.3.7-.8.7,1.6.7-2.7.7,2.7h.7l.7-1.9.7,1.1.7-1.1.7,2.7.7-.5.7-.3.7,1.1.7-1.1h.7l.7-.5.7-.8.7,1.6.7.5.7.5.7-1.9h.7l.7,1.1.7-2.1.7,1.9.7-.8h.7l.7,1.9.7-1.3.7-.8.7-1.3.7,2.7.7-1.9.7.3.7-1.3.7,2.4.7-.8h.7l.7,1.1.7-.5.7-1.3.7,4,.7-2.9.7.3.7-.5.7-1.1.7.8.7-.3.7.3.7.8.7-1.1.7,1.1.7.3h.7l.7-1.1.7.3.7.5.7-.3.7,1.9.7-1.1.7,1.3.7-2.7.7,2.1.7-1.3.7-.3.7.8h.7l.7-2.7.7.5.7,1.3.7.3.7,1.1.7-2.4.7-.5.7,1.3.7-1.9.7,2.4.7-.5.7-1.6.7.5.7,1.1.7-.5.7-.5.7,1.6.7-2.9.7,2.1.7.5.7.5.7-1.9.7,1.9.7-1.3.7.5h.7l.7-.3.7,2.4.7-1.6.7-.8.7-.3.7-.3.7.8.7-.3.7.5.7-2.7.7,2.9.7.5.7.8h.7l.7-1.3.7-.3h.7l.7,1.9.7-2.7.7,1.1.7.3.7-.8.7.8.7.3.7-.8h.7l.7,1.1.7-.3.7.5.7-.5.7-.3.7-1.1.7-1.1.7,2.4.7-1.1.7,1.9.7,1.1.7-.8.7-1.1.7-1.3.7,1.1.7.3.7,1.1.7-2.7.7,2.1.7-2.1.7,2.9.7-4.5.7,1.9.7.5.7.8.7.8.7-1.3.7,1.3h.7l.7-1.3.7-.8.7,2.4.7-.8.7-2.9.7,1.3h.7l.7,1.9.7-1.6.7,1.1.7-.8.7,1.3h1.3l.7-1.3.7-.3.7-2.1.7,1.1.7,1.3.7,1.1.7-.8.7-.3.7,1.1.7-.3.7-1.1.7-2.1.7,2.1.7-1.6.7,2.9.7.3.7-1.1.7-1.6.7,2.9.7-1.9.7.5.7.3.7.5.7-1.1.7,2.7.7-1.6.7.5.7-1.6.7-.3h.7l.7-.5.7,1.6.7-.5.7-1.3.7,1.6.7-.5.7,1.1.7-.5.7-1.1.7.5.7-2.1.7,2.9.7.3.7.8.7-2.4.7,1.1.7-.3.7-.3.7.3.7-1.9.7,1.1.7-1.1.7,3.5.7-3.2.7,2.1.7.3.7-1.6.7.5.7-.8.7-.3.7,1.6.7.8.7-1.6.7,1.6.7-.5.7-.3.7.8.7-1.3.7.8.7-1.1.7,2.7.7-3.2.7,1.1.7.5.7,1.1.7-.5.7-1.3.7,1.6h.7l.7-.5h.7l.7.5.7-1.1.7.3.7-.5.7,1.1.7-1.1h.7l.7-.5.7.5.7.8.7-.5.7-.8.7.5.7-.3.7-.3.7-.5.7,1.9.7-1.3.7-.8.7,1.9h1.3l.7-.8.7.8.7-.8.7,1.3.7-1.3.7-.5h.7l.7.3.7.3.7-.8.7.3.7,1.6.7-.8h.7l.7-.5.7-.8.7,1.3.7.5.7-1.6.7.5.7-1.6.7,3.5.7-1.3.7.3.7-.5.7-.3.7-1.1.7,1.1.7,2.1.7-2.1.7-1.1.7,2.1.7.3.7-.3.7-.5.7-1.3.7,1.6.7-1.1.7-1.1.7,1.9.7.3.7.3.7-.3.7-.5.7.8.7.8.7-1.3.7.8.7-.3.7-1.1.7.3.7.3.7-2.1.7,2.4.7-.5.7,1.1.7-2.4.7,3.5.7-2.1.7.5.7.3.7-1.1.7-.3.7,2.7.7-2.7.7-.8.7.5.7,1.3.7-1.1.7.8.7-1.3.7.5.7,3.2.7-2.9.7.5.7.3.7-.3.7.8.7-.8.7-1.3.7.5.7,1.3.7-2.7.7,2.7h.7l.7-1.9.7,2.1.7-.5.7-2.1.7.8.7.5.7.8.7-.3.7,1.1.7,2.4h1.3l.7-126,.7-67.4"/>
  <g class="cls-7">
    <text class="cls-4" transform="translate(25 1293)"><tspan class="cls-10" x="0" y="0">7</tspan><tspan class="cls-11" x="12" y="0">↓</tspan></text>
  </g>
  <g class="cls-7">
    <text class="cls-4" transform="translate(844 1493)"><tspan class="cls-10" x="0" y="0">13.8Mb </tspan><tspan class="cls-11" x="84" y="0">↑</tspan></text>
  </g>
  <path id="_4" data-name=" 4" class="cls-9" d="M20,679.4l.6-1.2.6,73.8.6,118.5.6-.4h.6l.6-.4.6.4.6,1,.6,1,.6-2.5.6,1.5.6-1h.6l.6.6.6-.6.6-.8.6.6.6-1.2.6,2.1.6-1.5.6,1.5.6-1.9.6,1,.6.8.6-.2.6.2.6-1.2h.6l.6,1.2.6-.2.6.2.6-1.5.6,1.2h.6l.6,1,.6-2.7.6.4.6.8.6.6h.6l.6-1.7.6,1.9.6-1.9.6,1.5.6-.4.6-.2.6,1.2.6-1.5.6,1,.6-.6.6-.6.6-.2.6,1,.6-1.2.6.8.6.2.6-.2.6.6.6-.4.6,1.5.6-1,.6.6.6,1.2.6-2.5.6-.2.6,1,.6,1.5.6-2.1.6.8h.6l.6-.6.6,1h.6l.6-2.1.6,1.7.6-2.5.6,1h.6l.6,1,.6-3.5.6,3.5.6-.4.6.8.6-.6.6.4.6-2.7.6,1.2.6,1.2.6-.4.6,1.5.6-1.7.6.8.6-1.2.6.2.6-.4.6,1.7h.6l.6-1.5.6,1.7.6-.6.6-.6.6.4.6.8.6-.8.6.4.6-1.7.6,2.5.6-.8.6-.4.6-.6.6.4.6.2.6-.8.6,1.5.6-1,.6.6.6-.6.6,1,.6-.6.6.2.6.8.6-1.2h.6l.6.4.6-.4.6.4.6.6.6-1,.6-.4h1.2l.6.8.6-.2.6-.6.6-.2.6,1.5.6-.4.6-.4.6-1.5.6,2.5.6-.6h.6l.6-.8.6.4.6.6.6-.4.6-2.1.6,2.5.6-1.2.6,1.2.6-.6.6-.4.6,1.2.6-.6.6.2.6-1,.6.6h1.2l.6-.2.6-.2.6.8h.6l.6-.6.6.4.6-.2.6,1.2.6-1.2.6.6.6-.6.6.6.6-.2h.6l.6-1,.6.8.6-.8.6.6.6.6.6-.6.6.4.6.4.6-1,.6,1,.6-1.2.6.6.6,1.5.6-1.2.6-.6.6.6h.6l.6-.6.6,1,.6-1,.6.6.6-.8.6,1.5.6.2.6-1.7h1.2l.6.2.6,1,.6-.4.6.6h.6l.6-1.2.6-.4.6-.8.6-.8.6,1.9.6.8.6.2.6.2.6-2.7.6,2.3.6,1h.6l.6-.6.6-1,.6.4.6,1,.6-1,.6.2h.6l.6.4.6.4.6-.4.6-.8.6-.8.6.8.6.8.6-.6h.6l.6-1,.6,1.7.6-.8.6.2.6-.8.6,1.7.6-2.3.6,2.1.6-1,.6-2.1.6,2.9.6-1.2.6,1,.6-1.5.6,1.7.6-.2.6-1.5.6,1.7.6-.2.6-.4.6,1.9.6-1.9.6-2.5.6.4.6,1.9.6.4.6-.2.6-1.2h.6l.6.8.6-1.5.6.6.6,1.2.6.6.6-.4h.6l.6.4.6-2.7.6,1.9.6.8.6-2.1.6,2.1.6-.4.6-.2.6-.4.6,1.7.6-1.9.6.6.6.4.6-.2.6.2h.6l.6,1,.6-1.7.6-.2.6-.8.6,2.7.6-.6.6-1.5.6.6.6.2.6-1.9.6,1.5.6,1,.6-.4.6-.6h.6l.6.2.6-1.5.6,1.7.6-1.9.6.4.6,2.5.6-.8.6.4.6.2.6-2.5.6,1.5.6.4h.6l.6.2.6.6.6-2.3.6-.2.6.4.6,1.5.6-.2.6-1h.6l.6.2.6.8.6-1.2.6,1,.6.4.6-2.7.6,2.5.6-.4.6-.2.6,1h.6l.6-.6.6.4.6-1.9.6.4.6,1.5.6-.8.6.2.6-.6.6-.4.6.6h.6l.6.8.6-1.2.6,1.2.6-1.9.6.4.6.2.6.2.6.2.6-.4.6.8.6-.8.6.8.6.2.6-.6.6-1.2.6.6.6.4.6,1,.6,1.5.6-2.9.6,1.7.6.4.6-1.2.6-.4h.6l.6.4.6-.8.6,2.1.6-1.7.6-.4h.6l.6.4.6,1.7.6-.8h.6l.6-.4.6.2.6-.2.6.8.6-1.9.6,1.5.6.2.6-1.2.6,1.5.6.8.6-3.3.6,2.7.6-1.5.6,1.5.6-.4.6-1.2.6,1.9.6-1.2.6,1.5.6.2.6-.6.6-.6.6.4.6-1.5.6,1,.6.4.6-.2.6.4.6-.6.6-.2.6-1,.6.8.6.8.6-2.3.6,1.9h.6l.6-1.9.6,1.9.6-.2.6.8.6-2.3.6.4.6.6.6.4.6-.6.6,1.7.6-.4.6-1.2.6.8.6-1,.6.8.6.4.6-1.5.6.4.6,1.2.6-.6.6.8.6-1,.6,1.7.6-2.9.6,1.5.6-1.2.6-.8.6,2.5.6-1,.6.2h.6l.6.6.6-.6.6-1.2.6,2.1.6-1.5.6.8.6-1,.6.4.6-.4.6,1.2.6-.8.6,1.7.6-.4h.6l.6,1,.6-.2.6-1.5.6-.8.6-.2.6,1.7.6-1.2.6,1.5.6-1.9.6,2.5.6-1,.6-1.5.6,2.3.6-1.5h.6l.6.4.6.4.6-1h.6l.6.4.6,1.2.6-1.7.6,1.2.6-.6.6,1.2.6-.2.6-1,.6-.6.6,1,.6.8.6-1.5.6.2.6,1.7.6.2.6.6.6-.4.6.8h.6l.6-3.1.6.8.6,2.1.6-.6.6.4.6-.2.6-.6.6.6.6-.4h.6l.6.2.6.2.6-.4.6-1.2.6.6.6.2.6.4.6-.6.6-.4.6-.4.6.4.6-1.5.6.6.6-.2.6.2.6,1.9.6.8.6-.2.6.2.6-1.2.6-.8.6,1.2.6-.4.6.4.6-2.3.6,2.3.6-1,.6-.4.6-.2.6.2.6-.8.6.8.6,1,.6-1.5.6-.2.6,1.7.6-1.2.6-.4.6-.4.6.6.6-1,.6,1,.6-.4.6,1.5.6-.4.6-1.2.6,1,.6-.8.6,1.9.6-1,.6-.6.6.6.6-.4h.6l.6-.4.6.2.6-1.2.6-.4.6,1.2.6.6.6.4.6-.6.6.8.6-.2.6-.2.6.8.6-2.3.6-.2.6.8.6,2.3.6-.8.6-1,.6.8.6-1.2.6-1.5.6,2.7.6.8h.6l.6-.6.6-.6.6-.4.6.6.6.2.6.4.6-.2h.6l.6.4.6-.8.6-.4.6-.4h.6l.6,1.5.6-1.5.6,1,.6-1.9.6.4.6.2.6,2.1.6-2.1h.6l.6,1,.6-.2.6-1.2.6.4.6,1.7.6-1,.6-.4.6-1,.6,2.9.6-1.2h.6l.6-.2.6,1.7.6-.8.6-.6.6-.6.6-.6.6,1.5.6-.4.6,1.2.6-1.2.6.8h.6l.6-1.5.6,1.5.6-.8.6-1.2.6,1.7.6.2h.6l.6-.4.6-1.5.6-.2.6,2.5.6-.8.6-1.9.6,2.1.6-.4.6.2.6-.4.6,1,.6-1.9.6,1.7.6.6.6-1.2.6,1.2.6-2.7.6,2.1.6.6.6.2.6-1,.6.4h.6l.6-2.1.6.8.6,2.7.6-3.3.6,1.2.6-.2.6-.8.6,1,.6.6.6-1.9.6,2.1.6-1.5.6.4h.6l.6,1.2.6-1,.6.2.6-.8.6,1.9.6-2.7.6.2.6,1.2.6.6.6-.6.6.8.6-1.5.6,1.5.6-1,.6.2.6.6.6-1,.6-.8.6,1,.6-1.2.6,2.5.6-.8.6-.4.6,1,.6-.2.6-.4.6-1.9.6,2.7.6-1.7.6,1.2.6.4.6-1.2.6,1.7.6-1.7.6-.6.6.6h.6l.6.8.6-1.2.6,1,.6.2.6-.4.6-1.2.6.2.6.4.6.8.6-.8h.6l.6-.2.6,1,.6-1,.6.8.6,1,.6-1.5.6-.6.6-.4.6,1,.6.2h.6l.6.2.6.8.6-1.5h.6l.6.6.6.4.6-.6.6-.6.6,1,.6-1.5.6,1.7.6.2.6-.8.6.8.6-2.5.6,2.9.6-1.9.6-.6.6,1,.6.6.6,1.2.6-.2.6-2.1.6.2.6-.2.6,1.7.6-1.9.6,1.5.6-.8.6.4.6-.6.6.4h.6l.6.2.6-1.5.6.8.6,1.2.6-.6.6.6.6-1.7.6.2.6,1,.6.4.6-1.5.6.6.6-.2.6-1.5.6.2.6,1.2.6.2.6-1,.6.8.6-.8.6,2.1.6-3.3.6,3.1.6.4.6-1.9.6.4.6,1.7.6-.8.6-1.5.6.4.6,1,.6.4.6-.6h.6l.6-1.2.6,1.2.6.4.6.6.6-4.4.6,3.3.6-2.3.6,1.9.6-.4h.6l.6.2.6.8.6.4.6-1,.6.6.6-1,.6.4.6-.4.6-.2.6,1.2.6-.4.6-.6.6.2.6-.2.6-.4.6,1.2.6-.6.6.4.6-.2.6.8.6-1.2.6-1,.6,1.2.6-1,.6,1.7.6.2.6-2.1.6,2.1.6-1.9.6,2.3.6.2.6-2.1.6-.4.6.8h.6l.6,1.5.6-1.9h.6l.6,1.7.6-.8.6,1.5.6-2.3.6-.8h.6l.6,1.5.6-.2.6-.2.6-.2h1.2l.6.6.6-.2.6-2.1.6,2.7.6-.4.6.6.6-1.5.6.8.6.6.6-1,.6.2.6.2.6.8.6-.6.6-.2.6-.6.6-1.2.6,2.1.6.2.6.2.6-1,.6.2.6-1.5.6,2.3.6-1.2.6-.4.6,1.9h.6l.6-.4.6-1.5.6-.8.6-.2.6,1.2.6-.6.6,2.7.6-2.7.6.6h.6l.6-.2.6,1.9.6-.4.6-1.7.6,1.2.6-.2.6,1.5.6-1.2.6.4.6-.6.6-.2.6.6.6-.2.6,1.2.6-2.3.6,2.1.6-.6.6-1.2.6-2.1.6,2.5.6-1.5.6,1.5.6-.2.6-1.5.6,1.9.6-.4.6.2.6.4.6-.6.6.2.6.6.6-1.2.6.6.6.8.6-2.9.6,1.5.6,1.2.6-.4.6-1.7.6,2.5.6-1.5.6-.6.6.6.6-.4.6,1.7.6-.6.6.8.6-.6.6-1,.6,1.5.6-.2.6.6.6-.8.6.2.6-.4.6,1.7.6-2.3h.6l.6-.4h.6l.6,1,.6,1.5.6-1,.6.2.6.4.6-.8.6-.2.6,1.2.6-2.3.6-.6.6,1,.6.2.6,2.3.6-.6.6-1.7.6.4.6-.6.6,1.2.6-1.7.6,1.2.6-.4.6-.4h.6l.6-1,.6,2.1.6.6.6-1.9.6,1.5.6-.2.6-.2h.6l.6-.4.6.6.6-.6.6,1,.6-.6.6.2.6.6.6-2.3.6,1.9.6.4.6-.4.6.2.6-2.1.6,2.5.6-1,.6.8.6-1,.6-1.2.6.4.6-.6.6,2.1.6-.4.6.4.6.2.6-1,.6,1.5.6-1,.6-.8.6,2.1.6-1,.6-.4.6.8.6-.2.6-.2.6.6.6-.6.6.2.6.6.6.4.6-1.9.6-.4.6,1.2.6.2.6-.6.6.6.6-.2.6-.8.6,1.7.6-.8.6-1,.6.2.6.8.6-1.2.6.2.6-.8.6,1.5h.6l.6-.6.6.2.6.8.6-2.3.6,2.5.6-1.5.6,1.7.6-1.5h.6l.6,1.2.6.4.6-.6.6.2.6-1.5.6,1.2.6-.4.6-1.5.6,1.2.6-1.2.6,2.7.6-1.5.6.2.6-.4.6,1.5.6-1.5.6.6.6,1,.6-2.9.6,2.5.6-3.3.6,4.6.6-1.2.6-1.9.6,1.7.6-1,.6-1.5.6,3.1.6,1,.6-2.1.6-1,.6,1.7h.6l.6-.6.6.8.6-.6h.6l.6-.4.6.2.6.2.6-.6.6,1.5.6-2.5.6,1.2.6-2.5.6,1.7.6,2.1.6-.6.6-.6.6-2.3.6,2.9.6-1.2.6-.4.6.4.6,1,.6-.8.6.8.6-.2.6.2.6-1.9.6.2.6,2.5.6-1.5.6.4.6-.6.6.2.6-1,.6,1.7.6.2.6-.8.6,1.2.6-1.5.6,1.2.6-2.1.6,2.3.6.2.6-1.5.6-.8.6,1.5.6.2.6-1.9.6,2.3.6-.8.6-.2.6.2.6,1h1.2l.6-.2.6-1.5.6,1.7.6-2.7.6,1.5.6.2.6-.4.6.2.6.6.6-1.7.6.4.6.6h.6l.6,1.7.6-1.2.6.2.6-.2.6-1.2h.6l.6,1.7.6.2.6.2.6-1.9.6,1.2.6-.6h.6l.6.8.6-.4.6-.2.6-.2.6-.2.6,1,.6-.8.6-1.2.6,1,.6-.6.6,2.1.6-1.7.6.6.6-.4.6-1.2.6.6.6.6.6-.2.6.8h.6l.6-.6.6,1.2.6-.8.6-.2.6-.6.6.6.6.2.6-.2.6,1,.6-.6.6-.8.6-.2.6,1,.6-1.2.6,1.5.6-.4.6-.4.6.8.6.4.6-.8h.6l.6.4.6-.2.6,1.2.6-1.7.6.4.6-1,.6.6.6.2.6-.2.6-1.2.6.4.6,1.2.6.6.6.4.6-2.3.6.4.6.4h.6l.6,1.2.6-.8.6.4h.6l.6-1.7.6.6.6-1,.6.6.6.8.6-.4.6-.4.6,1.2.6-.8.6-.6.6.4.6-.2.6,2.1.6-1,.6-.6.6,1.2.6-.6.6,1,.6-.8.6-.4.6-.8.6,1.9.6-1.5.6,1,.6-.6.6.4.6-.8.6-.4.6,1.9.6-1h.6l.6-1.2.6.8.6,1.5.6-1,.6-.2.6-1h.6l.6,1.9.6-.4.6-1.7.6,1,.6-1.7.6,2.1.6.2.6-1.2.6,1,.6-.6h.6l.6-.4.6,1.9.6-1.9.6.2.6.2.6.4.6-.4h1.2l.6,1,.6-1.5h.6l.6,1.2.6,1,.6.2.6-1.7.6-.4.6.2.6.2.6-.4.6.2.6.2.6-.6.6.6.6.4.6-.2.6-.2.6-1.2.6,2.1.6-3.1.6,1.5.6-.2.6.6.6.6.6.2.6-.8.6.6.6-.2.6-.4h.6l.6,1.5.6-2.1.6.8.6-1.5.6-.6.6-.8.6-2.5.6,3.3.6.8.6-2.3.6,1.2.6.2.6.8.6-.4.6.4.6,1,.6,1.7.6-1,.6-.8.6-.2.6.4.6-.6.6-.2.6-1,.6-.2.6-.8.6.4.6-2.3.6,1.5.6,3.1.6-.2.6.2.6.4.6-1.7.6-.2.6,1.9h.6l.6.6.6.6.6-.2.6-1.2.6,1.2.6.8.6-2.7.6-.2.6.6.6,1.2.6.2.6.2.6.2.6-.8h.6l.6-1.7.6,1,.6.4.6-.4.6.2h.6l.6.6.6.4.6-.6.6-.6h.6l.6,1,.6-1.2h.6l.6-2.1.6-.6.6,3.3.6-1.5.6-1.7.6,1.7.6.8.6,1,.6-2.1.6.4.6-1.2.6,2.1.6-1.7.6,2.1.6-1,.6.2.6-.8.6-.4.6-.8.6,2.7.6-2.1.6-.2.6,1.2.6-.2.6-.6.6,1,.6-1.2.6.2.6,2.7.6-1.5.6.8.6.4.6-1,.6-1.2.6,1.7.6-2.7.6-.4.6,2.1.6,2.1.6-2.5.6.2.6.2h.6l.6-.2.6,1.5.6-1.5.6,1,.6-.2.6,1.2.6-1.2.6,2.1.6-1.9.6-.6.6-1,.6,1.7.6-1,.6,1.5.6.4.6-.4.6.4.6-1.2.6-1.9.6,1.9.6-.8.6.8.6-.2.6-.8.6,1.9.6-.6.6.4.6.6h.6l.6-.4.6.8h.6l.6-.6.6-.2.6-.4.6,1,.6-.2.6.2.6-1.2.6,1,.6-44.1.6-75.2"/>
  <g class="cls-7">
    <text class="cls-4" transform="translate(25 1493)"><tspan class="cls-10" x="0" y="0">8</tspan><tspan class="cls-11" x="12" y="0">↓</tspan></text>
  </g>
  <g class="cls-7">
    <text class="cls-4" transform="translate(844 1693)"><tspan class="cls-10" x="0" y="0">13.5Mb </tspan><tspan class="cls-11" x="84" y="0">↑</tspan></text>
  </g>
  <path id="_3" data-name=" 3" class="cls-9" d="M20,481l.6,190,.6-.3.6.6.6-1.3.6-1.6.6,1.6.6-.6.6-.6.6-1.3.6-1,.6,2.6.6-2.3.6.3.6.6.6,1.3.6-1.6.6.3.6,1.6.6-.6.6-3.5.6,4.8.6-2.3.6,1.3.6-1.9h.6l.6,1.6.6-.3.6.3.6,1.9.6-1.9.6-1.9.6,1.9.6-1.3.6,1.3.6-1.6.6-1.6.6,2.9.6-.6.6.6.6-1.6.6.6.6,2.3.6-1.9.6,1.6.6-.6.6,1.6.6-5.1.6,2.3.6,1.6.6,1.3.6-2.6.6,1.9.6-3.5.6,1.9.6-.3.6,1,.6-1.6.6,2.9.6-2.9.6,1.6.6.3.6,1.3.6-1.3.6-1.3.6-1,.6-2.9.6,2.3h.6l.6,4.2.6-1,.6-1.3.6,1.3.6.6.6-.6.6-.3.6.3.6-2.6.6,2.6.6-6.4.6,3.2.6,1.6.6,1.3.6-.3.6-2.9.6,1.6.6.6.6-.6.6.3.6,1.3.6-1.3.6-1,.6.6.6,1,.6-1,.6.3.6.6.6,1,.6-.6.6-.6.6.3.6,1.6.6-3.2.6,1.3.6.6.6-1.9.6,1.3.6-3.5.6,4.8h.6l.6.6.6-1.6.6-1,.6,2.3.6-.6.6-.6h.6l.6-.3.6-.3.6,1.3.6,1,.6-1,.6-4.8.6,6.8.6-1,.6-1,.6-.3.6.3.6-.6.6,1.3.6.3.6-1.6.6.6.6-1.9.6,1.9h.6l.6-1,.6,1.6.6-3.2.6,1h.6l.6-2.6.6,1.6.6,1.6.6.6.6-1,.6-2.3.6,3.9.6-1,.6-.3.6,2.6.6-3.2.6-.3.6,2.6.6-1.6.6,1.3.6-1,.6-1.3.6,1,.6-.3.6,1.6.6.3.6-4.5.6,1.6.6.3.6,2.9.6-1,.6-1.9.6.6.6,1.9.6-1.6.6,2.9.6-3.9.6,1.6.6.6.6.6.6-2.3.6,2.3.6-2.3.6,1.3.6-1.9.6,3.2.6-1h.6l.6,1,.6-3.5.6,2.3.6-.3.6-.3.6-.6.6.6.6-.3h.6l.6-1.6.6,2.9.6,1.6.6-1.3.6-2.3.6.3h.6l.6.6h.6l.6.6.6.3.6.3.6-1.9.6,1.6.6-1.3.6-1.3.6,2.6.6-1.3.6,2.6.6-3.2.6,2.6.6-2.9h.6l.6-1.9.6,2.9.6,1.6.6-1.3.6-1,.6.3.6,1.3.6-2.3.6-.3.6,2.3.6,1.6.6-2.3.6-.6.6,1.9.6-2.6.6,1,.6,1.6.6-1.6.6-.3.6,1.3.6-1,.6-2.6.6,3.9h.6l.6.6.6-3.9.6,1.6.6,2.3.6-.6.6-1,.6.6.6.3.6-3.9.6,3.5.6,1.9.6-2.9.6,2.6.6-2.3.6,3.2.6-3.2.6-.3h1.2l.6,1.9.6-1.3.6.3.6-2.9.6,2.6.6-1.9.6,1.6.6.3.6.6h.6l.6-2.9.6,1.9.6.3.6,2.3.6-3.9.6.3.6,2.9.6.6.6-1.9.6-.6.6,1,.6-.3.6-1.3.6,2.9.6-2.9.6,3.2.6-.6.6-1.9.6-1,.6,1.6.6-1,.6.3.6,1,.6-.3.6-1.9.6,2.6.6-2.6.6,3.2h.6l.6-1.6.6.3.6.3h.6l.6-1.3h.6l.6,1,.6-.3.6,1.3.6-.6h.6l.6.3.6-1.6.6-.3.6.6.6,1.3h.6l.6.6.6-.3.6-1.3.6-1,.6,1.6.6,1.6.6-1.3.6-1.9.6.6.6.3.6-3.5.6,4.2.6-.3.6,1,.6-1,.6,1,.6-1,.6-2.6.6,2.9.6-2.6.6,3.5.6-2.3.6,1.9.6-1.9.6,1,.6-2.6.6,2.6.6-.6.6-.3.6-.3.6,2.6.6-.6.6-1.9h.6l.6,2.3.6.6.6-3.2.6.6.6,2.6.6-1,.6-1.6.6-1.3h.6l.6,2.3.6,1,.6-1.6.6,1,.6-2.9.6,1,.6,2.6.6,1,.6-3.5.6,1.9h.6l.6-.6.6,1.6.6-2.9.6,1,.6,1.3.6-.3.6-1,.6,1.3.6-3.2h.6l.6,3.2.6,1,.6-2.9.6,2.6.6-1,.6-.3.6.3.6-1.6.6,2.6.6-2.9.6,1.3.6,1.6.6-1.3.6-.6.6-1,.6,1.3.6,1,.6-.6.6.6.6-2.6.6,1.6.6-1.3.6-.6.6,1,.6-1,.6,3.2.6,1.3.6-2.6.6.3.6,1,.6-.6.6-1.6.6-1,.6,1.9.6-1.3.6.6h.6l.6.6.6,1.6h.6l.6-1.6.6-.6h.6l.6-.3.6-.6.6,1.6.6,1,.6.6.6.6.6-1.9.6,1.3.6-2.6h.6l.6,1,.6,1.3.6-1.3h.6l.6,1.9h1.2l.6-.3.6-1.3.6.6.6-1.3.6,2.9.6-2.3.6-1.3.6,1.9.6-1.3.6-1,.6,1.6.6-.6.6-1.3.6,4.2.6-.3.6-3.2.6,1.9.6-2.9.6,1.9.6,1.6.6-1,.6-.3.6-1,.6-.6.6,2.3.6-.6.6.6.6-1,.6-2.6.6,3.5.6-2.6.6,2.3.6-.6.6-1,.6,1,.6,1.3h.6l.6.6.6-2.3.6-2.3.6,3.5.6-.6.6-1.6.6-.6.6-.6.6,1.3.6-4.2.6,2.9.6,1.3.6.3.6-2.3.6,3.9.6-1.3.6-.3.6,1.9.6-3.2.6-.3.6.3.6.6.6,1.6.6-6.8.6,5.5.6-2.6.6-1.3.6,5.8.6-1,.6-4.2.6,5.1.6-3.2.6,3.5.6-.6.6-1,.6.3.6,1,.6-2.6.6-1,.6,1.9.6.6.6-1.3.6-4.5.6,2.3.6,3.2.6.6.6-1.6.6-.3.6,2.6.6-3.5.6-4.8.6,3.2.6,3.2h.6l.6,1,.6-2.3.6,4.2.6-2.9.6-2.6.6,1.3.6,2.3.6-1.9.6,3.9.6-.6.6-2.3.6-.3.6,2.3.6-1.6.6-2.6.6-.6.6.3.6,5.1.6-1.9.6-2.6.6,2.3.6-1.9.6-3.9.6,3.5.6,1.6.6-7.1.6,9,.6,2.3.6,1,.6-7.7.6-1.6.6.6.6-4.2.6-1.3.6,6.8.6,1.9.6-1.6.6-1,.6-3.2.6,5.5h.6l.6-1.6.6,2.6.6-1.6.6,1.6.6-.3.6-.6.6-.3h1.2l.6,1.6.6,1.6.6-2.3.6,1.3.6-3.5.6,1,.6,2.3.6.6.6-1,.6,1.3.6-2.9.6-1.3.6-1.3.6,3.2.6.3.6-2.6.6,4.5.6-4.2.6-1.3.6,4.2.6-2.6.6-2.3.6,1.6.6-3.2.6,7.1.6-.3.6-6.1.6,6.1.6,2.3.6,1.9.6-5.5.6-3.5h.6l.6-.3.6-.6.6.3.6-3.9.6,11.3.6.3h.6l.6-8.7.6,1.3.6,1.6.6,2.9.6-2.3.6.6.6-.6.6,1.6.6-.3.6,2.9.6-2.6.6-.3.6,1.3.6-1.6.6-7.7.6,11.3h.6l.6.6.6-7.4.6-.3.6,3.9.6-2.6.6,1,.6,1.6.6-.6.6,2.9.6-3.5.6,2.9.6-.3.6-3.2.6,1.3h.6l.6,2.9.6-1.6.6-7.1.6-1.6.6,8,.6,3.2.6-2.6.6-.3.6,1.6.6-3.2.6,1.6.6-4.2.6,3.2.6,1.3.6,3.2.6-.6.6-1.3.6-1.3.6,2.3.6-3.2.6-1.6h.6l.6,3.5.6.6.6-2.6.6-.6.6,3.5.6-6.4.6,2.3.6-2.3.6,4.8.6,3.5.6.6.6-4.2.6-2.3.6-1.9.6-7.1.6,7.4.6,1.6.6,1.9.6-5.8.6,3.9.6.6.6,1.6.6.6.6-.6.6-3.9.6,5.1.6-3.2.6,2.6.6-.6.6.3.6-2.6.6,1.3.6-1.6.6,1.9.6,1,.6-1.6.6,1.3.6-.3.6,2.3.6-1.3.6-1,.6-4.2.6,5.1h1.2l.6-1,.6,1.9.6-1,.6-1.6.6-3.2h.6l.6,3.9.6,2.3.6-2.6.6.6.6-5.5.6,6.8.6-.3.6-3.9.6,1.9.6.3.6.6.6-2.6.6,3.9.6,1.3.6,1.3.6-2.9.6-2.6.6-3.2h.6l.6,1.3.6-2.6.6,7.4.6-.6h.6l.6-5.8.6,2.6.6.6.6.3h.6l.6,1.6.6-1.3.6,2.3.6.6.6-1,.6-.6.6-3.5.6-2.3.6,5.1.6,2.6.6-1.9.6,1.9.6-1,.6-.3.6.3.6-1.6.6,1,.6.6.6,1,.6-.6.6,1,.6-.6h.6l.6-1.3.6,2.3.6-1,.6-.6.6-.3.6,1,.6,1.6.6-2.6h.6l.6,3.2.6-4.2.6,1.3.6-1,.6,1,.6-1.3.6,1.3.6,2.6.6-2.3.6.3.6,1.6.6-2.3.6-.6.6.6.6,1.3h.6l.6-1.3.6-.6.6,1.6.6.3.6-.6.6,2.3.6-3.2.6.3.6,1.9.6-2.9.6,1,.6-1,.6,1,.6,1.9.6-2.9.6,1.3.6,2.9.6-3.2.6-1.9.6,4.8.6-.3.6-1.3.6-1,.6.6.6-2.6.6,1.3.6,2.3.6-2.6.6-1,.6,1.6.6.6h.6l.6,1.3.6-1,.6-1.6.6,3.2.6-1.6.6-.3.6,1,.6-1.6.6-1.3.6-1,.6,2.3.6-1.3.6,2.6.6-1.3.6,1.6.6-2.6.6-1,.6,2.3.6-2.3.6,2.6.6-.6h.6l.6-1.3.6.3.6,1,.6,1.6.6-3.5.6,2.9.6.3.6-1,.6-1.3.6,1,.6,2.3.6-4.2.6.6.6.3.6.3.6.6.6-2.6.6,3.5h.6l.6-2.3.6,1.9.6,1.3.6-1.6.6,1.9h.6l.6-1.9.6-1.3.6,1.6.6,1.3.6-2.9.6.6.6-.3.6.6h.6l.6-1.3.6,1.6h.6l.6-.3.6,1.6.6.6.6-3.2h.6l.6,1.6.6,1.3.6-3.9.6.3.6,2.6.6-.3.6-2.3.6.3.6,2.9.6-1,.6-1.3.6,1.6.6.6.6-.3.6-2.3.6-.6.6,2.3.6-1.3.6,1.6.6,1.3.6-1.6.6,1.3.6-1.6h.6l.6-.3.6,1.6.6-2.3.6,2.6.6-1,.6-1,.6-1.6.6,3.9.6-2.3.6,1.9.6-1.9.6,1.6.6-3.5.6,3.2.6.6.6-1.9.6-.3.6,1.9.6.3.6-.6.6-2.6.6,4.2.6-2.9.6,2.6.6-3.2.6,1,.6,1.6.6-.6.6-.6.6,1.3.6-.3.6-1.6.6,1.3.6,1.9.6-4.8.6,2.3.6-2.9.6,1.6.6,1,.6-.3.6-1,.6.6.6.6.6-.3.6-1.9.6,1.9.6,1.3.6-.3.6-.6.6,1,.6.3.6-.3.6-2.9.6,3.9.6.3.6-1,.6-2.6.6,3.9.6-.3.6-2.9.6.3.6,1.6.6-1.3.6,1h1.2l.6,1,.6-1.3.6.3.6-.3.6,1.3.6-2.6.6.6.6.6.6-3.2.6,1.9.6.3.6,1.3.6-1.6.6-.6.6,1.3.6.6.6-1,.6,1.6.6-1.9.6,1.3.6.3.6.6.6-1,.6.6.6.6.6.3.6-1,.6-1.6.6,2.3h.6l.6-1.3.6-1.9.6,1.3.6-.3.6-1.3.6,1.3.6.3h.6l.6-.3.6-1.3.6,1.3.6,2.3.6-1.3.6-.3.6-.3.6-.6.6,3.9.6-5.1.6.3.6-.3.6,1.6.6-.6.6,1.9.6-1,.6-.6.6,1.6.6,1,.6-1.6.6-1.3.6.3.6,2.3.6-1.6.6-.3.6,1.6.6-.3.6-1.9.6-1.6.6,4.2.6-.6.6.3.6-2.9.6,2.9.6-.3.6-1.6.6-1.6.6,1.3.6,2.3.6-2.6.6,1.3.6-.3.6,2.6.6-4.2.6,3.2.6-.6.6-1.3.6,1h1.2l.6,1.6.6-4.2.6,3.2.6-2.3.6,1.6.6,1,.6-.3.6-1.3.6,1.6h.6l.6,1,.6-4.2.6,3.2.6-.6h.6l.6-1.3.6,2.3.6-2.3.6.6.6.3.6.6.6,1.3.6-.6.6-1.9.6-1.6.6,1,.6.3h.6l.6.6h.6l.6,1,.6-3.2.6,1.6.6,1,.6,1.3.6-2.6.6,2.6.6-1.3h.6l.6-.3.6-.6.6,2.3.6-2.3.6,1.3.6,1,.6-1.3.6-2.9.6,2.3.6.3.6-.3.6,1,.6-.6h.6l.6.3.6,1,.6-3.2.6-1.3.6,3.5h.6l.6-.6.6,1.6.6-1.3.6-.3h.6l.6,1,.6-.6.6-1.3.6,1.9.6-2.3.6,1.3.6-1.3.6,3.2.6-1.9h.6l.6,1,.6-2.9.6,1.9.6.3.6.3.6-1,.6.6.6-4.2.6,3.5h.6l.6,1,.6,1,.6-1.9.6,1.3.6.3.6,1.9.6-1.6.6-1.6.6,1.6.6-1,.6.3.6-2.9.6,2.3.6.6.6-.6.6.3.6-1.3.6,1.6.6-1.9.6.3.6,1,.6-1.6.6,2.6.6-.3.6-.3.6-2.3.6,1.3.6-3.9.6,6.8.6-1.9.6,1.6.6-1.3.6-1,.6.6.6,1,.6-1.6.6,1.6.6.3.6-.6.6.3h.6l.6-2.3.6,1.9.6-1.9.6-.3.6,1.6.6.3.6-1.3.6-1,.6.6.6-1.9.6,3.5.6-1,.6,1,.6.6.6,1.3.6-1.9.6-.3.6.3.6-.3.6-.6.6,1.3h1.2l.6-2.3.6,2.6.6,1.3.6-1.6.6-.6.6-1.6.6,1.9.6,1.3.6-.3.6.3.6-1.9.6,1.3.6-1.6.6,2.3.6-1.9.6,1.6h.6l.6.3.6-2.3.6.3.6,2.3.6.6.6-1.9.6-1.3.6-.3.6,1.6.6-2.3.6,3.2.6-2.3.6-1.3.6,1.9.6-1.3.6,1,.6-1.9.6,2.6.6.3.6-.6.6.6.6.6.6-2.9.6,2.3.6,1,.6-2.3.6.6.6,2.3.6-4.2.6,3.5.6-2.9.6-.3.6,1,.6,2.3.6-4.8.6,3.5.6,1,.6-2.6.6,1.9.6,1,.6-2.3.6-1.9.6,2.9.6,1,.6-2.3.6,1.6.6-1,.6,1.3.6-1.6.6,1.3.6-2.9.6,4.2h.6l.6-.3.6-.6.6.3.6-1.9.6-.6.6,1.6.6-1,.6,1.9.6-.3.6.3.6-.3.6-.3h.6l.6-1,.6.3.6.3.6-1.6.6,3.2.6-.3.6-4.2.6,1.9.6,1.3.6-2.6.6,2.6.6.3h.6l.6-1.9.6.6.6-1.3.6,2.3.6.6.6-1.3.6,1.3.6.3.6-1.3.6-.6.6,1.6.6-1.6.6.6.6.6.6-3.2.6,1.6.6,1.6.6-.6.6.3.6,1.3.6-2.3.6,1.6.6-3.2.6,1.3.6-.6.6,1.9.6-1,.6,1.9.6-1.6.6-1,.6-.3.6,1.6.6-2.3.6,2.3.6-1.9.6,1,.6,1,.6-2.6.6,1.3.6-1,.6.3.6.3.6.3.6,1.6.6.3.6-1,.6-1.9.6,2.3.6,1,.6-.6.6.3h1.2l.6-1.3.6.6.6-2.3h.6l.6,2.6.6-.6.6.6h.6l.6.3.6-1.3.6-1.3.6.6.6,1.3.6-.6.6,2.3.6-1.3.6-.6.6,1.3.6-2.9.6,1,.6,2.6.6-1,.6-1,.6-.3.6,2.3.6-1.6.6-1,.6-.3.6,2.6.6-1.9.6,1.3.6-2.3.6.3.6.6.6-1.9.6.6.6,2.3.6-1.9.6-.3.6,2.6.6-4.2.6,1.6.6.3.6-1.6.6,2.3.6-2.6.6,1.3.6,4.2.6-1.6.6-2.3.6.6.6,1.9.6,1.3.6-2.6.6.3.6.3.6-1,.6.3.6-.3.6,2.9.6-1.3.6.3.6-2.6.6-1,.6,1.9.6-.6.6.6.6,1.9.6-1,.6,2.6.6-4.8.6,2.3.6-1.9.6,2.3.6-1.6.6,2.6.6-2.3.6,1.9.6-1.9h.6l.6-.6.6,2.6.6-2.9.6,1.3h.6l.6,1.3.6-1.3.6.3.6-1.9.6,2.3.6-1.6.6,3.2.6-.6.6-1.3.6.3.6,1.6.6-3.5.6,2.9.6-1,.6-.6.6-.6h.6l.6-.6.6,3.2.6-3.5.6,1.6.6.6.6.3.6-3.5.6,3.5.6-1,.6-2.3.6,3.5.6-1,.6.6.6-1.3h.6l.6-1.3.6,2.6.6-1h.6l.6-1.3.6,2.6.6-.6h.6l.6-.3.6.3.6-1.6.6.3.6,1.3.6.3.6-2.9.6,3.2.6-.6.6.6.6-.3.6-.3.6-148.2.6,50.2"/>
  <g class="cls-7">
    <text class="cls-4" transform="translate(25 1693)"><tspan class="cls-10" x="0" y="0">9</tspan><tspan class="cls-11" x="12" y="0">↓</tspan></text>
  </g>
  <g class="cls-7">
    <text class="cls-4" transform="translate(844 1893)"><tspan class="cls-10" x="0" y="0">10.4Mb </tspan><tspan class="cls-11" x="84" y="0">↑</tspan></text>
  </g>
  <path id="_2" data-name=" 2" class="cls-9" d="M20,279.7l.6,191.4.6-1.1.6-2.1.6,2.4.6-.8h.6l.6-2.7.6,4.3.6-.5.6-1.9.6.5.6,1.1.6.3.6-.3.6-1.1.6-1.6.6,1.3.6-.8.6,3.5.6-3.2.6,2.4.6-1.9.6.5.6.5.6-1.6.6,2.9.6-.3.6-4,.6,1.3.6-.3.6.5.6-.5.6,1.9.6-.8.6-1.3.6.8.6,1.6.6-.8.6,1.3.6-2.1.6,1.1.6-.5.6,1.1.6.5.6,1.1.6-2.1.6.8.6-1.1.6-.3h.6l.6-.3.6.8.6.3.6-.5.6,1.3.6-2.7.6.8.6,1.9.6-.3.6-.3.6-.3.6-.5h.6l.6.8.6-.8.6-.8.6-1.1.6.8.6.8.6,1.3.6-1.9h.6l.6.3.6,1.6.6.5.6-2.9.6,1.1h.6l.6-.8.6,1.9.6-1.3.6-.8.6,1.3.6-.8.6,1.6.6-.8.6.3.6.3.6-.3.6-.8.6-.5.6,1.3.6-.8.6-2.1.6,2.7.6-1.6h.6l.6,1.9h.6l.6-1.9.6.5.6,1.3.6.5.6-1.3h.6l.6-.8.6,1.3.6-.3.6-1.9.6,2.1.6-.5.6.5.6-1.1h.6l.6.3.6.3.6-.5.6,1.6.6-1.6.6,1.1.6.8.6-2.4.6.5.6-.5.6,1.3.6-.3.6.8.6-2.4.6,1.9.6-.5.6,1.6.6-1.9.6.8.6,1.1.6-1.1.6.8.6-.5.6.5.6-.3.6.3.6-1.6h.6l.6.8.6.5h1.8l.6-.5.6-1.3.6-.3.6,1.3.6,1.6.6-1.6.6-1.3.6-.8.6.8.6,1.3.6.5.6-1.1.6.5.6-.5.6,2.4.6-3.5.6,2.1.6-1.1.6,1.9.6.3.6-.3.6-1.1.6.5.6.5.6-1.9.6-1.3.6,4.3.6-1.6.6-.5h.6l.6.3.6.5.6-2.4h.6l.6.3.6.8.6-.3.6.8.6-.3.6-.3.6,1.1.6-1.6.6.8.6,1.1.6.5.6-.8.6-1.3.6,1.3.6-1.6.6,1.9.6-2.1.6,1.1.6,1.3.6-1.6.6-.3.6,1.3.6-2.4.6.8.6,1.3.6.8.6-2.9h.6l.6,1.3.6,1.3.6-.3h.6l.6-.3.6.3.6-3.2.6,2.1.6.5h.6l.6.5h1.2l.6-2.1.6.5.6,1.6.6-1.9h.6l.6,2.7.6-1.1.6-.3.6.3.6-1.1.6,2.1.6-1.6.6.8.6-.8.6,1.6.6.5.6-.3.6-.8.6,1.1.6-1.6h.6l.6,1.3.6-1.6.6-.8.6.3.6,1.3.6-.3.6-1.1.6-.5.6,1.3h.6l.6.5.6-.5h1.8l.6.5.6-.3.6-.3.6-.3h.6l.6,1.1.6-2.1.6,2.1.6-2.1.6,2.4.6-2.1.6,1.6.6-1.1.6-1.9.6,2.9.6-.5.6-1.1.6,1.1.6,1.6.6-4.3.6,2.4.6.8.6.8.6-3.2.6,2.7.6-1.1.6,1.6.6-.3.6-1.1.6-1.6.6,1.6.6-1.3.6,1.6h.6l.6-.8.6.5.6-.3.6.3h.6l.6-.3.6,1.1.6.3.6-1.3.6.5.6-1.6.6.5.6,1.9.6-2.4.6.5.6,2.1.6-1.6.6.5.6-.5.6,1.1.6-.3.6-1.3.6-.8.6,1.6.6.3.6,1.3.6-1.3.6-.5.6-.3.6.3.6-.3.6-.3.6-.5.6,2.9.6-1.6.6.5.6-2.1.6,2.4.6-2.4.6,2.4.6-1.9.6,1.1.6.3.6-1.9.6,1.1.6-.8.6.8h1.8l.6,1.3.6-1.3.6-.3.6,1.3.6.8.6-.5.6-1.9h.6l.6.5.6-1.3.6,1.1.6,1.6.6-.3.6-1.3.6,2.1.6-1.3.6.8.6-.3.6-.3.6-.3.6-1.1.6-.5.6,2.4.6-2.7.6,1.3h.6l.6-.8.6-.3.6,1.1.6.3.6-.5.6,2.1.6-4.3.6,3.5.6.5h.6l.6-1.1.6.3.6-.8.6-1.1.6,1.6.6-1.6.6,1.6.6-2.9.6,2.7.6.5.6.3.6-.3.6-1.1.6,1.6.6-1.6.6-.5.6.5.6,2.1.6-1.9.6,1.1.6-.8.6.8h.6l.6-2.9.6,2.7.6-1.1.6,1.3.6-.5.6-.3.6.5.6-1.3.6-2.4.6,2.9.6,2.1.6-.8.6-.5h.6l.6-2.1.6,1.1.6-.5.6,3.5.6-3.5.6,1.6.6-.3.6.8.6-1.3.6-.8.6-.8.6-.3.6,2.4.6.3.6-.8.6-.3.6,1.1.6-1.6.6,3.5.6-5.1.6,2.7.6.3.6-.5.6.5.6.3h.6l.6.5.6-1.9.6.8.6-2.1.6,2.4.6-.5.6-.3.6,1.6.6-1.1.6.5.6.5.6-1.6.6-1.1.6,2.7.6-.5.6-.5.6-1.6.6.3h.6l.6,2.1.6-2.7.6,3.2.6-2.4.6.8.6,1.9.6-1.9.6-.8.6,1.3.6-1.6.6,1.9.6-1.3.6,1.9.6-1.9h.6l.6,1.6.6-.8.6.5.6.5.6,1.3.6-1.9.6-.3h.6l.6-.5.6.8.6-1.3.6,2.9.6-1.1.6-1.3.6.5.6-1.1.6.3.6,1.6h.6l.6-.5.6.8.6-.5.6.3.6-.5.6,1.1.6-.3.6-1.3.6,2.7.6-.5.6-1.6.6.5.6.3h.6l.6-.5.6-2.7.6,2.7.6.3.6-.5.6.5.6-.3.6-.8.6.3.6.5.6-.3.6-.8.6-.5.6,2.1.6.8.6-1.6h.6l.6.5.6-.5.6-.3.6-1.3.6.8.6.8.6,1.6.6-1.6.6-.5h.6l.6,1.6.6-3.2.6,1.9.6-.3.6,1.6.6-1.1h.6l.6.8.6-2.4h.6l.6,1.1.6.5.6-.5.6.5.6-.5.6.5h.6l.6-.3.6-1.6.6,2.1.6-.8.6,1.9.6-.3.6-.5.6-.5.6-1.3.6,1.1.6-.3.6.3.6.5.6,1.1.6-.3.6-3.5.6,2.4.6,1.1.6-1.9.6-.5.6.5.6.5.6-.8.6,1.3.6-.5.6-1.3.6,2.4h.6l.6-1.6.6,1.1.6.3.6-.3.6,1.1.6-2.7.6,1.6.6-3.5.6,2.7.6,1.1.6-1.6.6.3.6-1.1.6,2.4h.6l.6-1.6.6.8.6,1.1.6-1.3.6.8.6-1.1.6,1.6.6-2.7.6,1.9.6.3.6-1.1.6,1.3.6-2.1.6.5h.6l.6,1.3.6-3.2.6,1.6h.6l.6.5.6.5.6.5.6-.5.6.8.6-.3.6-.5.6,1.1.6-.8.6-.8.6.5.6-1.1.6-.8.6-.5.6,4.3.6.5.6-2.1.6,1.6.6-2.4.6,2.9.6-1.6.6-.3.6-.3.6-1.6.6,1.3.6-.8.6.8.6-2.1.6,4.6.6-.8.6-1.9.6.8.6-.8.6-.3.6-.3.6-.3.6,1.3.6-.3h.6l.6.5.6.5.6-1.9.6-.8.6.8.6-.3.6,1.1h.6l.6-.8.6-.3.6.5h.6l.6-1.9.6,3.5.6-.5.6.3.6-.5.6-1.6.6-.8.6,2.7.6-2.1.6.5.6,1.6.6-1.3.6-.3.6,2.7.6-2.1.6-1.3.6.3.6,2.7.6-2.7.6,1.9h.6l.6-1.9.6,1.9.6.3.6-1.6h.6l.6,1.6.6-.8.6.3.6-.3.6,1.6.6-1.1.6.5.6,1.3.6-1.9.6.8.6-2.7.6,1.3.6,1.1.6.8.6-.3.6,1.1.6.8.6.3h.6l.6-.5.6.3h.6l.6.3h4.7l.6-.3h.6l.6.3h.6l.6-.3.6.3h1.8l.6-.3.6-.8.6-2.7.6.3.6,3.2.6.3h1.8l.6-.3h.6l.6-.5.6.5h.6l.6.3h.6l.6-.5.6-.3.6.8h.6l.6-.3.6.3h1.2l.6-.3.6.3.6-.3.6-.5.6.8.6-.3.6-.5.6-2.1.6-1.1.6.5.6-.8.6,1.6.6-3.8.6,2.1.6-1.1.6.8.6.3.6-.8.6,2.7h1.2l.6,1.1.6-.8.6-.5.6-1.6.6-.8.6.3.6-.3.6.5h.6l.6-2.1.6,1.9.6-.8h.6l.6,1.3.6-.8.6,1.1.6-1.9.6-5.1.6,5.1.6.8.6,1.3.6-.3.6-.3.6-.5.6-.5.6,1.3h.6l.6-1.9.6-.8.6,3.5.6-.3.6,1.1.6,2.1.6-.3.6-1.6.6,1.9.6-.5.6.3.6-.8.6.3.6-.3.6-1.6.6.8.6-.8.6-.5h.6l.6-.3.6-.3.6-.8.6,2.9.6-2.1.6.3.6.5.6-.8.6-4.6.6-4.3.6,3.2.6-1.9.6-.5.6,5.6.6-.5.6-1.1.6,5.6.6.3.6.3.6-7,.6,4,.6-.5.6.8.6-.3.6,1.3.6-.3h.6l.6.5.6-3.2.6,1.9.6,2.1.6-2.9.6-.5h.6l.6,2.4.6,1.3.6,1.1.6-1.1.6-2.1.6-4,.6,3.2.6-.3.6.3.6-.3.6-.3.6,3.5.6,1.6.6-1.3.6-2.1.6,1.3.6.3.6.8.6-1.9.6.3.6.8.6-3.5.6,1.6.6.8h.6l.6.8.6-2.9.6,2.1.6-.3.6-4.6.6.8.6,1.9.6,1.9.6,1.3.6-1.3.6-.5.6.8.6.8.6,1.1.6-.3.6.3.6-1.3.6-1.3.6-1.3.6.3.6-2.4.6-1.6.6,1.9.6-1.3.6-.3.6-5.9.6-.5.6-2.1.6,3.5.6,5.9.6-5.9.6-1.6.6-5.4.6-.5.6,2.4.6,6.2.6,4,.6-1.9.6-2.4.6-.3.6-4,.6,1.9h.6l.6,3.5.6.5.6,5.1.6,1.3.6,1.1.6-.8.6,1.9.6-1.3.6-.8h.6l.6.8.6-.8.6,1.1.6-.3.6.8.6-1.3.6.3.6.8.6,1.9.6-1.3.6-.5.6.5.6-1.3.6,2.1.6-1.3.6-.5.6,2.4.6-1.6.6-.3.6,2.4.6.3.6-2.1.6-.3.6.8.6-1.3.6-.3.6,1.9.6-1.6.6,1.1.6-1.1.6-1.1.6,1.1.6,1.1.6-.8.6.5.6-1.3.6,1.9.6-.8.6-1.1h.6l.6,2.4.6-.3.6.8.6-1.6.6,1.3.6.3.6-2.1.6.5.6,1.6.6-1.3.6-.3.6,1.3.6-1.6.6.8.6.5h.6l.6-2.4.6,1.3.6-.5.6-.3.6,1.1h.6l.6.3.6-1.3.6,2.4.6-3.2.6,2.9.6-1.9.6.8.6-1.1.6,1.1.6-.3.6-.3.6-.8h.6l.6,1.9.6-.5.6,1.1.6-3.5.6,1.3.6,2.4.6-.5.6-1.1h.6l.6-.8h.6l.6-.5.6,2.1.6-.8.6.8h.6l.6-.5.6-.3.6.3.6-1.6.6,1.1.6.5.6-.3.6.5.6.5.6-1.9.6,1.3.6-1.1.6,1.3.6-1.3.6-2.1.6,4.3.6-1.9.6,1.1h1.2l.6-1.9.6,2.4.6.5.6-2.4.6.3.6-1.6.6,2.1.6-1.9.6,1.6.6,1.6.6-2.7.6-.3.6,2.7h.6l.6-1.6.6,1.6.6-1.3.6-.8.6,2.1.6-1.3.6-.3.6.3h.6l.6,1.1.6-.3.6.3.6-2.7.6.3.6,1.9.6.3.6.8.6-1.3.6-.3.6-.8.6-1.1.6,2.1.6,1.1.6-.8.6-.5.6.3.6-.5.6.3.6-.5.6-5.4.6,6.2.6-.3.6-.3.6-1.3.6,1.1.6.5h.6l.6.3h.6l.6-.3.6-.5.6.8.6-.3.6.3h1.2l.6-.3.6.3.6-1.6.6.8.6.8.6.8.6-1.9.6,1.3.6.8.6-.5.6-1.9h.6l.6,2.7.6-.8.6-1.1.6.3h1.2l.6-1.1.6,1.9.6-1.6.6.5.6,1.9.6-2.9.6,1.6.6,1.1.6-4,.6,1.9.6,2.1.6-1.9.6,1.3.6-2.4.6,2.4.6-.5.6-.5.6-.3.6,1.1.6-.3.6-1.6.6.5.6,1.6.6-1.1.6-.3.6-.8.6,2.4h.6l.6-3.5.6,2.1.6-.5.6,2.1.6-2.7h.6l.6-.5.6.3.6,1.6.6-.5.6.3.6-.5.6,2.9.6-1.9.6-2.1.6,1.3.6,1.1.6-1.3.6,1.1.6.8.6-.5.6.3h.6l.6-.8h1.2l.6-.3.6,1.1.6.3.6-2.1.6,1.1.6.8.6-.3.6-.5.6.5.6-1.1.6-.5.6.5.6-1.1.6,2.1.6-2.1.6,1.9.6-1.1.6-3.2.6,1.3.6,2.1.6,1.1.6-1.1.6,1.6.6-1.9h.6l.6-2.4.6,2.7.6.5.6-.3.6-1.1.6,2.4.6-2.9.6,2.7.6-.5h.6l.6-.8.6-.5.6,1.9.6-1.1.6,1.3.6-3.8.6,2.1.6,1.3.6-2.7.6,1.3.6-.3.6-.3.6-1.3.6-1.3.6,4,.6,2.9.6-3.8.6-1.6.6,1.6.6.3.6-2.1.6,4.6.6-2.1.6-.3.6-.3.6,1.1.6.8.6-.5.6-1.3.6,1.3.6-1.9.6.3.6,1.6h.6l.6-.3.6-.5.6-.8.6,1.1.6.8.6-.5.6.8.6-3.5.6,4,.6-5.1.6,3.2.6.5.6-.3.6-.3.6.8.6-.5.6.8.6-.8.6-.3.6.8.6.3.6-1.3.6-.3.6,1.6.6-1.1.6.5.6.8.6-.3.6-.5.6-2.1.6,3.8.6-1.6.6.5.6,1.3.6-2.7.6-.5.6-1.1.6,1.6.6.3.6.3.6.3.6-.3.6.5.6-.5.6-.8.6.8.6-1.9.6,2.7.6-1.6.6,1.3.6-2.1.6,2.1.6-.8.6-1.3.6,1.1.6.8.6-3.2.6,2.4.6-.8.6.5.6.8.6-.8h.6l.6,1.1.6-.5.6.5.6.5.6-2.9.6,1.3.6,1.6.6-1.3.6,1.3.6-1.6.6,1.3.6-.5.6-.5.6.8.6.8.6-1.9.6,2.4.6-.8.6-1.3.6.5.6.5.6-1.6h.6l.6.3.6.8.6-1.9.6,2.9.6-3.8.6,3.5.6-2.9.6,1.3.6-.8.6,2.1h.6l.6-.8.6.3.6-1.1.6-.3.6.8.6.3h.6l.6,1.1.6-.8.6-.8.6.3.6-.5.6.3.6.5.6-2.9.6,1.3.6,2.4.6-2.9.6,2.7.6-.5.6-1.1.6.5.6,1.3.6-.8.6-.5.6-.8.6-.5.6.5.6,2.7.6-2.4.6,1.9.6-.5.6-.5.6-.3.6,1.3.6-2.9.6,1.1.6.8.6-1.9.6,2.9.6-.3.6-.5h.6l.6-.3.6-.5h.6l.6.3.6-.5.6-.8.6.3.6.8.6,1.9.6-1.1h.6l.6-.5.6-.5.6,1.3.6.8.6-.8h.6l.6.3.6-2.7.6,1.1.6.3.6.3.6.5.6.5.6-.8.6-2.4.6,1.3.6,1.9.6.5.6-4.8.6,4.3.6,1.6.6-1.6.6.3.6-.3.6-1.1.6,1.1.6.5.6-1.9.6,1.1.6-.8.6-.8.6.8.6,2.1.6-2.4.6.8.6-1.1.6,1.1h1.2l.6-.3h1.2l.6.3.6,1.3.6-.8.6-2.1.6,1.1.6-1.3.6,1.3.6.3.6-1.6.6.3.6.5.6-.3.6,2.4.6-1.1.6.5.6.3.6-.8.6-2.4.6,3.5.6-.8.6-.3.6.5.6-1.3.6,1.9.6-1.9.6,1.9.6-2.7.6,1.6.6,1.3.6-1.1.6,1.3.6-.8.6-1.9.6,1.3.6-.8.6,1.6.6-.5.6-.8.6-.3.6,1.3.6.5.6-.5.6-2.1.6,1.1.6.3.6-.8h.6l.6,1.1.6-2.9.6,2.9h.6l.6-2.4.6,1.9.6-.5.6-.3.6,2.1.6-.8.6-1.9.6.8.6-.5.6-1.6.6,3.2.6-4,.6,3.5.6-1.6.6,1.1.6.3.6-.5.6-.5.6,1.9.6-1.9.6,1.9.6-.3.6.8.6-.8.6,1.1.6-.8.6-1.1.6-.5.6.8.6-.5.6,1.9.6-1.9.6,1.1.6.8.6-.5.6-1.3.6-.3.6.5.6.5.6-2.1.6,1.3.6-.3.6,1.6.6-2.4.6,1.3.6,1.1.6-.8h.6l.6-.3h.6l.6.8.6.3.6,1.6.6-3.5.6,2.1.6-.5.6,1.3.6-2.4.6.5.6.5.6-1.6.6.8.6,1.3.6-.5h.6l.6-81.2.6,49.6"/>
  <g class="cls-7">
    <text class="cls-4" transform="translate(25 1893)"><tspan class="cls-10" x="0" y="0">10</tspan><tspan class="cls-11" x="24" y="0">↓</tspan></text>
  </g>
  <g class="cls-7">
    <text class="cls-4" transform="translate(844 2093)"><tspan class="cls-10" x="0" y="0">13.2Mb </tspan><tspan class="cls-11" x="84" y="0">↑</tspan></text>
  </g>
  <path id="_1" data-name=" 1" class="cls-9" d="M20,97.1l.5,175.6.5.3.5-2.6.5-.8.5-.3.5-3.1.5,2.1.5-.5.5,2.9.5-1.3.5,1,.5-1h.5l.5.5.5-1.3.5.3.5,1,.5-.5.5-.8.5,1,.5-.8.5.3.5.5.5-.3.5-1.6.5,3.9.5-1.8.5.5.5-.3.5,1.6.5-2.3.5.5.5-1.6h.5l.5,1,.5,1,.5-.3h.5l.5-.3.5-.3.5-1,.5,1,.5,1.6h.5l.5-1.6.5,1,.5-1.3.5-.8.5,1.8.5,1,.5-1.8.5-2.1.5,1.6.5,1.6.5.5.5-1.8.5,1,.5-.3.5.8.5-.5.5-1,.5-.8.5,1.3.5-2.3.5,2.9.5-.3h.5l.5-.3.5-1,.5,1.3.5.5.5-1.8.5-.3.5,1.8.5-.8.5.5.5,1.3.5-1.6.5-1.3.5,1.8.5-2.1.5,3.9.5-2.6.5-2.1.5,2.6.5-.8.5,2.1.5-1.6.5,1.6.5-3.4.5,1.3.5.5.5-.3.5,1.3.5-2.1.5.3.5.8.5-.5.5,1.3.5-2.6.5,1.3.5-.3.5,2.3.5-2.6h.5l.5,1h.5l.5-.5.5,1.8.5-1.6.5-.3.5-.8.5-1.3.5,1,.5-.3.5,2.1.5.3.5-1.3h.5l.5,1,.5-1.6.5,1.6.5-2.3.5,1,.5,2.1.5-2.3.5,2.6.5-1.8h.5l.5.8.5-.5.5-.3.5-2.3.5,4.4.5-2.1h.5l.5,1.3.5-1h.5l.5,1.3.5-.3.5-1,.5,1.3.5-1.3.5.3.5-.5h.5l.5-.8.5.3.5,1.6.5-1,.5.5.5-.5.5-1,.5.3.5,1.8.5-1,.5-1.3.5,1.3.5.3.5-.3.5,2.3.5-2.6.5.8.5-.5h.5l.5-1,.5,1.3.5.5.5,1,.5-3.1.5.8h.5l.5,1.6.5-1,.5,2.1.5-.8.5-.5h1l.5-1,.5,1.8.5-1,.5-.5.5,2.1.5-1.3.5-1.3.5,1,.5.8.5-.8.5,1.3.5-1.6.5-1.8.5,1.3.5.3.5.5.5-.3.5,1,.5-.8.5-.5.5.8.5-1,.5,1,.5-.3.5-1,.5-.3.5,1.3.5-1,.5,1.8.5-3.9.5,2.6.5-2.3.5,2.1.5-.5.5-.3.5-.3.5,1.6.5.3.5.3.5.8.5-2.1.5,1.3.5.8.5-1,.5-.5.5.5.5,1.3.5-1.3.5-1.6.5,1.8.5-.8.5-.3.5.8.5,1.3.5-2.1.5.8.5-2.3.5,1,.5,2.3.5-2.1.5.8.5.5.5-1,.5-1,.5,2.1.5-1.6.5.3.5,1.6.5-2.1.5,2.1h.5l.5-.5.5.5.5-.3.5-1,.5-.5.5,1,.5,1.3.5.5.5-3.4.5,3.4.5-4.2.5,1,.5.8h.5l.5.5.5.5.5.5.5-.8.5-2.6.5,1.8.5-.5.5,2.1.5-1,.5.3h.5l.5-.5.5,2.1.5-.5.5-.3.5-.5.5-.3.5.3.5,1,.5-1,.5-1,.5,1.3.5-.3h1l.5-1,.5.5h.5l.5-1.3.5,2.1.5-1,.5.8.5-1.8.5,2.3.5-3.9.5,2.6h1l.5,1.6.5-2.3.5,1.8.5-3.1.5,3.9.5-4.2.5,3.1.5.5.5-2.1h.5l.5,1.3.5-1.3.5,1.3.5-1.8.5,1,.5.5.5.8.5-.3.5.3.5-3.4.5,3.6.5-1.3.5.5.5.8.5-3.1.5,2.3.5,1.8.5-1.8h.5l.5-1,.5-.5.5,1.8.5-1.3.5.8.5-.5.5-.8.5,2.6.5-2.3.5.3.5-.3.5.3.5.5.5-.5.5.5.5.5.5-.8.5-.5.5,1.6.5-2.3.5,2.1.5-.5.5-.8.5.3h.5l.5.5.5,1.3.5,1.3.5-.3.5-.8.5-1.8h.5l.5,1.6.5-.8.5.3.5-.5.5.3h.5l.5,2.1.5-3.6h.5l.5,1.8.5-2.1.5,1.8.5.5.5-.5.5.3h.5l.5-1.6.5,1.3h.5l.5-1.8.5,2.1.5-2.6.5,1.6h.5l.5,1,.5-2.1.5,1.8.5-1.3.5,2.3.5-2.1.5-.3.5,2.3.5-2.9.5,1.6.5-.8.5,1h.5l.5-.8.5-1,.5.8.5.3.5-.8.5,2.1.5-.8.5-2.1.5,3.6.5-1.8.5,1.6.5-.5.5-.3.5-.8h.5l.5-1.8.5,1.6.5.8.5-.8.5,1.3.5-1,.5.8h.5l.5-2.6.5,2.1.5,1.6.5.3.5-.8.5-2.1.5,1.8.5-3.1.5,1.3.5.3.5,2.1.5-.8.5-.8.5,1,.5-3.4.5,2.3.5-.5.5.3h.5l.5-1,.5,2.6.5-1.3.5-.3.5-.8.5.3.5,1.3.5-.8h.5l.5-.3h.5l.5,1.3.5.5.5-1.8.5.8.5,1,.5.3h.5l.5-1.8h.5l.5-.3.5.8.5-1.8.5.3.5,1.6.5-.8.5.3.5,1.8.5-1.3.5-.3h1l.5-1.8.5,2.3.5-1,.5.5.5-.8.5,1.3.5-1,.5,1.3.5-2.3.5,1.8.5.3.5-.3h.5l.5-.5.5.3.5-2.3.5,2.3h.5l.5.8.5-1,.5,1.6.5-1.6.5.3.5-3.1.5,1.3.5,1,.5.8.5,1.3.5-1,.5-.3.5-.3h.5l.5-.5.5,1.8.5-1.6.5,1,.5-1.3.5.5.5.3.5-1.6.5-.3.5,1.6.5.3.5-3.1.5,2.1.5,2.3.5.5.5-2.6.5,1.6.5-1.3h.5l.5,1h1l.5-1.3.5,1,.5-.8.5-2.1.5,2.9.5-.5.5-1.8.5.8.5-.3.5.5.5-1.3.5,3.4.5-1.3.5.8.5-3.1.5,4.2.5-1.8.5-1,.5.5.5,1.6.5.5.5-1.3.5.8.5-1,.5-.5h.5l.5.3.5-.3.5.3.5.3.5-1.3.5,2.6.5-.8.5-.8.5.5.5-1,.5-.3.5.5h.5l.5,1.6.5-.8.5-.8.5,1.8.5.5.5-.8.5-.5.5,2.9.5-5.7.5,1.6h.5l.5-1.3.5-2.3.5,1.8.5-1.8.5,4.7.5.8.5-.3.5.3.5.5h1l.5-.8.5.3.5,2.9.5-.3.5-.5.5-1.8.5,1.3.5.8.5-.5h.5l.5-1,.5,1,.5-1.3.5-.3.5-.5.5,1.3.5,1.6h1l.5.3h.5l.5-.3h.5l.5.3h1l.5-.3.5-.3.5-1.3.5,1.8.5-.3.5.3h.5l.5-.3h.5l.5-.5.5.5.5.3h1.9l.5-.5.5.5.5-.5h.5l.5.3.5-.3.5-.8.5.5.5-1.6.5-3.4h.5l.5,3.1.5-1,.5.3.5,1,.5-1,.5-.8.5,1.3.5-.8.5-.3.5.8.5-1,.5,1h.5l.5.3.5.8.5-2.1.5,1.6.5-.3.5,2.3.5-.5.5-.3.5-1.3h.5l.5.3.5.3.5,1,.5-1.3h.5l.5,2.3.5-3.9.5,3.4.5-1,.5.3h.5l.5-.3.5.8.5.3h.5l.5-.8.5.5.5-.8.5.5.5-.8.5-6,.5,2.9.5,2.3h.5l.5,1,.5-.3.5,1.3.5-3.1.5.3.5-.5.5,2.1.5,1.3.5-.8.5-.8.5,1.6.5.3.5-2.3.5.8.5.5.5-.8.5,1.3.5-2.6.5.3.5-1.6.5,1,.5,1,.5-.8.5.3.5.3.5,2.6.5-3.1.5,2.3.5-1.3.5-3.1.5-.5.5,2.1.5-1.3.5,1.6h.5l.5.5.5-1.3.5-.5.5,1.6h.5l.5.5.5-3.9.5,4.2.5-1.8.5.3.5.5.5-1,.5.8.5.3.5,1,.5-.3.5-4.2.5,2.1.5-1.8.5,2.9.5,1.8.5-1.6.5.8.5.3.5-1.6.5,1.3.5-1,.5,1.3.5.5.5-1,.5.8.5,1,.5-.3h.5l.5-.8.5.3.5-.8.5-1.8.5,2.3.5-.3.5.8.5-.3.5-.3.5.5.5.3.5,1,.5-.3.5.5.5-1.8.5-.5.5-4.7.5-1,.5-.8.5,2.6.5.5.5.8.5.3.5.8.5-1.8.5,3.1.5,1.6.5-1.6.5.8.5-1.6.5.8h.5l.5.3.5.8.5-1.3.5.5h.5l.5,1.3.5.5h.5l.5.8.5-1,.5.5.5-.8.5.5.5-1.8.5.5.5-5.2.5.8.5,1.6.5,3.9.5,1h1l.5-.3.5.3.5-.5.5.5.5-.5.5.3h.5l.5.3h1l.5-.3.5.3.5-.5.5.5h7.8l.5-2.6.5,1.8.5.3.5-1,.5.3.5.8.5-.5h.5l.5,1,.5-.8.5.3.5.3.5.3.5-.3.5-.5.5-.8.5-.8.5-1.3.5-2.6.5,5.2h.5l.5-.3.5-1,.5-1,.5-.3.5,2.9.5.5.5.3.5-.8.5.8h.5l.5-1,.5.8.5.3.5-.3h.5l.5.3.5-.3.5.3h.5l.5-1,.5.8.5-.3.5-.3.5.5.5-1.8.5-.8h.5l.5-.5.5.3.5-2.1.5-.3.5-1,.5-2.9.5.5.5.3.5-1.8.5,6,.5-3.9.5-.5.5,1,.5,4.9.5-1,.5-1.3.5,3.4.5-.3.5-1.6.5-1.6.5-1.3.5,2.9.5-4.2.5,2.9.5-.5.5,2.9.5.8.5,1,.5-1.8.5.5.5,2.1h.5l.5-.8.5-.5.5-1.3.5,1.8h.5l.5.5.5-1h.5l.5-1.3.5-1,.5.5.5.8.5,2.3.5-1.6.5-1.8h.5l.5-.3h.5l.5-1,.5,1,.5-.3.5-.5.5-.3.5,2.6.5-1,.5-.3.5-1.6.5,1.8.5-1,.5.8.5-1,.5.5.5,1h.5l.5.5.5-1.8.5,1.3h.5l.5-.8h.5l.5.5.5.8.5-3.1.5,1.8.5-.3.5-1.6.5,2.6.5-2.6.5.5.5,1.6.5-.5.5,1.3.5-1,.5-1,.5,1.3.5-1.3.5,2.3.5-1,.5-.8.5.5.5-1.8.5,2.9.5-2.3.5.8.5,1.3.5-1.6.5,1.3.5.5.5.8.5-1h.5l.5-1.8.5,2.6.5-1.8.5.3.5.5.5-.3.5,1,.5-2.6.5.8.5.3.5.5.5-.3.5.5.5.3.5,1,.5-1.3.5,1,.5-1.8.5,1.3.5-.5.5-.3.5-.5.5-.3.5,2.1.5-3.1.5-.5.5,2.9h.5l.5-1.6.5,1.6.5.3.5-1.6.5,1,.5-.3h.5l.5-.8.5-.3.5,1,.5.8.5-1.6.5,1,.5-.8.5,1h.5l.5.5h.5l.5-.8.5-.5.5.5h.5l.5-1,.5,1.8.5-2.1.5,1,.5.3.5.5.5-.5.5.8.5-2.3.5,2.1.5-1,.5.8.5-1.6.5,2.1.5.3.5-.5.5-1,.5,1.6.5-.8h.5l.5-.5h.5l.5,1,.5.5.5-1.8.5-.3.5,1,.5-.5.5,1.8.5-1.3.5.5.5-1h.5l.5,1.3h.5l.5-1,.5-1.6.5,1,.5-1.3.5,2.3h.5l.5.3.5-1.8.5,1.3.5.8.5-.8h.5l.5-1.6.5-.5.5,2.6.5.3.5.3.5-1h.5l.5-.3.5.3.5-1h.5l.5,1,.5.5.5-.8.5-.5h.5l.5,1.3.5-1.3.5.8.5,1,.5-1.8.5,1.3.5-.8.5.5.5-.5h.5l.5.3h.5l.5-.3.5-1.3.5.5.5,1,.5-1.3.5,2.1.5-.8.5-.8.5.5.5,1.6.5-1.3.5-1.3.5-1.3.5,3.1.5-1,.5-.3.5,1.6.5-1,.5.8.5-1.8.5,2.1.5-2.3.5,1,.5.5.5-.3.5-.8.5,1,.5-.5.5-1.3.5,1h.5l.5.5h.5l.5-.3.5.5.5-.8.5,1.3.5-1.6.5,2.3h.5l.5-1.6.5-.8.5,1.3.5-.5.5.8.5-.8.5-1h.5l.5,1.3.5.3.5.3.5-.8.5-1.3.5.3.5-.8.5.8.5-.5.5-.8.5,1.6.5,1.8.5-2.3.5.5.5-.5.5.3.5-.3.5,1.8.5-1.8.5.3.5.3.5-.3.5-.5.5-.3.5.8.5-.8.5,1.8.5,1.3.5-2.3.5-1.3.5.8.5.3.5-1.6.5,1.8.5-2.3.5,2.9.5-.5.5.5.5-.3.5-1.3.5,2.3.5.5.5-.5.5-.8.5-.5.5.5.5,1.8.5-1.6.5-.8h.5l.5-.3.5,1.6.5.5.5-4.2.5,2.9.5-1.8.5,1,.5,1.3.5-1.6.5,2.6.5-1,.5-.5.5-1h.5l.5,1.8.5-2.1.5,1,.5,1.8.5-.8.5-2.1.5,2.3.5.5.5-2.3.5-.5.5,2.1.5-1h.5l.5.3.5,1.6.5.3.5-4.2.5,3.6.5-1.3.5.5.5-1.3.5,1.6h.5l.5-1.3.5.5.5-1.8.5,2.6.5,1,.5-2.3.5-.3.5,1.3h.5l.5.5.5-1,.5.8.5,1.8.5-3.9.5-.5.5,2.6.5-1.6.5-.8.5,1.6.5.3.5-1,.5.8.5-1,.5-1.8.5,1.3.5.8.5-.8.5.5.5.5.5.5.5-2.3.5,1.3.5-.3.5.5.5.5.5-1,.5,1.6.5-.5h.5l.5-1.6.5.5.5.8.5-.5.5.5.5-1,.5,1.6.5-.8.5-.5h.5l.5.3.5-1.8.5,1.6.5,1.6h1.5l.5-1.6.5.3.5.8.5-.5.5-.8.5.8.5,1,.5-2.3.5,1.6.5,1.6.5-1.3h.5l.5.5.5-.3.5,1.6.5-2.1.5-1.6.5,3.1.5-2.3.5,3.1.5-1.8.5-1,.5.5.5.8.5.5.5-1.6.5-2.1.5,1.3.5.3.5-.8.5,3.1.5-2.6.5,1,.5-2.1.5,2.3h.5l.5.8.5-2.3.5,1.8.5-2.6.5,1.8.5-.3.5.8.5,1.8.5-3.6.5,1.8.5-.5.5-1.3h.5l.5,2.6.5-1,.5,1,.5-1.3.5.8.5-.3.5-1,.5,2.1.5-1.3.5,1,.5-.8.5.8.5-.5.5,1.8.5-1,.5-.5.5-.5.5-.8.5,1.6.5-.5.5.8h1l.5-.3.5,2.1.5-3.4.5.5h.5l.5.5.5,1,.5-.5.5-.3.5.5.5-1.3.5.3.5,1,.5.3.5-.3.5-1,.5-.3.5.5.5-1.3.5,1.6.5-.3h.5l.5-1,.5.3.5-1.3.5.3.5,1.6.5-2.1.5,4.2.5-1.3.5.8.5-1.6.5-1,.5,2.1.5-2.6.5,2.3.5-.8.5.8.5-1.6.5,1.6.5-2.3.5,1.8.5.3.5-1.3.5-.5.5.3.5,1.8.5-1,.5-2.1.5,1.6.5.8.5-.5.5-1.3.5,2.9.5-.3.5-1.3.5.3.5.8.5-1,.5.3.5,1,.5-1,.5-.3.5-.3.5,1.8.5-1,.5-.8.5.8h.5l.5-1.6.5,1.8.5.3.5-2.3.5,1.8.5-2.1.5-.3.5,2.1.5-1,.5-.8.5,1.8.5-1.8.5,1,.5.3.5.5.5,2.1.5-1.3.5-.5.5.8.5-1.6.5,2.3.5-2.1.5-.3.5,1.8.5-1,.5.3.5-1,.5,1.8.5-1h.5l.5,1,.5-1,.5,1.6.5-1.3h.5l.5,1.6.5-2.6.5.3.5.8.5-1,.5,2.9.5-2.9.5-.5.5.8.5-.5.5.5.5.8.5-.5.5,1.6.5-3.4.5,4.2.5-1.3.5.8.5-1.3.5-2.3.5,1.8.5,1.6h.5l.5-.8.5-.8.5-.3.5.3.5,1,.5-1,.5.3.5.3.5-.5.5-1,.5,2.3.5-1.3.5,1,.5-.3.5-2.1.5,1.6.5.5.5-.8.5.8.5-1.8.5,1,.5-.8.5,1,.5-.5.5.3.5,1.6h.5l.5-1,.5-1.3.5-.3.5-1,.5,1.6h.5l.5.5.5.5.5.3.5.5.5-1.3.5.8.5-1.3.5-1,.5-.5h.5l.5,2.1.5.8.5-1h.5l.5.8.5-1,.5-.5.5.5.5.3.5-.5.5,2.6.5-2.1.5.5.5.3.5.5.5-.3.5-.3.5.5.5-2.1.5,1.3.5-.3.5.5.5.8.5-1,.5,1.3.5,1,.5-2.3.5.8.5-.5.5-.5.5-1.8.5,4.4h.5l.5-4.2.5,2.3.5-1.6.5.5.5.5.5.5.5-1,.5.5h.5l.5.8.5-.8.5,1.3h.5l.5-2.1.5,2.6.5-.5.5-2.1h.5l.5,2.1.5-1,.5.8.5-.8.5.5.5-.8.5-1.3.5,2.6.5-4.2.5,4.4.5-.5.5.3.5-1.3.5-2.3.5,3.9.5-3.1.5.5.5.8h.5l.5-.3.5,1.8.5-1.6.5.8.5-.8.5-.3.5.8.5,1,.5-.5.5-1,.5,1.3.5-.3.5-.3h.5l.5-1,.5.5.5.3.5,2.1.5-1,.5-1.6.5-.3.5-.3.5,2.6.5-.8.5.3.5.3.5-1.3.5-.8h1l.5,1.3.5.5.5.3.5-1.8.5.8.5.8.5-1,.5.3.5.5.5-1.6.5.3.5.8.5.8.5-1h.5l.5-1.3.5.3.5,1,.5-2.3.5,2.9h.5l.5-.5.5.3.5.5.5-2.6.5,2.3.5-1,.5-.3.5.3.5.5h.5l.5-1.3.5,1.3.5-1,.5,1,.5.8.5-1.3.5.5.5,1,.5-2.3.5,2.1.5,1.3.5-1,.5-2.3.5,2.1.5-1.6.5,1.6.5-2.1.5.3.5,1.8.5-1.3.5.5.5.5h1l.5-.3.5.5.5.5.5-1.3.5.5.5,1.6.5-3.1.5.3.5,2.1.5-1.6.5.3h.5l.5-1,.5.8.5-.8.5-.3.5.8.5.3.5.8.5-.8.5-.3.5-.8.5.5.5.8.5-1.3.5,2.9.5.5.5-2.6.5,1.6.5-1h.5l.5-1,.5,1.3.5.3.5-1,.5,1.6.5-1.8.5,1.8.5-1.3.5-.3.5-.8.5,2.1.5-.3h.5l.5.3.5-1,.5.5.5.5.5,1.3.5-2.9.5,1.8.5.5.5-.5.5-3.6.5,3.1.5-1,.5,1,.5-.8.5.3.5-2.9.5,1,.5,2.1h.5l.5-.8h.5l.5.5.5,1,.5-2.1.5,1h.5l.5,1.3.5-3.4.5,2.6.5.5.5-.8.5-3.4.5,1.6.5,1.6.5-2.6.5,3.9.5.3.5-.8.5.3.5-2.1.5.5.5.5.5-.5.5.8.5-2.6.5,1.6.5-.5.5.3.5-1.8.5,3.1.5.3.5.3.5-.3.5,1.3.5-1.6h.5l.5.8.5-2.1.5,1.8.5-1.3.5-2.1.5,2.3.5-1.3.5,1,.5,1.8.5-2.6.5,2.3.5-1.6.5.3.5,1.3.5-2.3.5.5.5.5.5.5.5-.5h.5l.5,1,.5.8.5-1.3.5-.8.5.3.5-2.6.5,2.9.5.3h.5l.5-.3.5-.5.5.5.5.8.5.5.5.3.5-1.6.5.8.5-.8.5-1.3.5.8.5-1.3.5-.3.5,1.6.5-.5.5,1.8.5-1.6.5,1.8.5-.3.5-.8.5,1.6.5-2.3h.5l.5.8.5,1.6.5-3.1.5,2.3.5.5.5-1.6h.5l.5,1,.5-1.8.5,2.1.5-2.1.5.5.5.3h1l.5.8.5-.5.5-.8.5,1.6.5-1.3.5.3.5.5.5-1.6h.5l.5.8.5-.3.5-1.3.5,1.6.5.5h.5l.5-.5.5-.3h.5l.5,1,.5,1h.5l.5-1.6.5-189.9.5,134.1"/>
  <g>
    <path class="cls-8" d="M81.8,2193.6v6.7"/>
    <path class="cls-8" d="M166.4,2193.6v6.7"/>
    <path class="cls-8" d="M251.1,2193.6v6.7"/>
    <path class="cls-8" d="M335.8,2193.6v6.7"/>
    <path class="cls-8" d="M420.5,2193.6v6.7"/>
    <path class="cls-8" d="M505.1,2193.6v6.7"/>
    <path class="cls-8" d="M589.8,2193.6v6.7"/>
    <path class="cls-8" d="M674.5,2193.6v6.7"/>
    <path class="cls-8" d="M759.2,2193.6v6.7"/>
    <path class="cls-8" d="M843.8,2193.6v6.7"/>
    <path class="cls-8" d="M928.5,2193.6v6.7"/>
  </g>
  <g>
    <g class="cls-7">
      <text class="cls-5" transform="translate(78.8 2211.5)"><tspan x="0" y="0">1</tspan></text>
    </g>
    <g class="cls-7">
      <text class="cls-5" transform="translate(163.5 2211.5)"><tspan x="0" y="0">2</tspan></text>
    </g>
    <g class="cls-7">
      <text class="cls-5" transform="translate(248.2 2211.5)"><tspan x="0" y="0">3</tspan></text>
    </g>
    <g class="cls-7">
      <text class="cls-5" transform="translate(332.8 2211.5)"><tspan x="0" y="0">4</tspan></text>
    </g>
    <g class="cls-7">
      <text class="cls-5" transform="translate(417.5 2211.5)"><tspan x="0" y="0">5</tspan></text>
    </g>
    <g class="cls-7">
      <text class="cls-5" transform="translate(502.2 2211.5)"><tspan x="0" y="0">6</tspan></text>
    </g>
    <g class="cls-7">
      <text class="cls-5" transform="translate(586.9 2211.5)"><tspan x="0" y="0">7</tspan></text>
    </g>
    <g class="cls-7">
      <text class="cls-5" transform="translate(671.5 2211.5)"><tspan x="0" y="0">8</tspan></text>
    </g>
    <g class="cls-7">
      <text class="cls-5" transform="translate(756.2 2211.5)"><tspan x="0" y="0">9</tspan></text>
    </g>
    <g class="cls-7">
      <text class="cls-5" transform="translate(838 2211.5)"><tspan x="0" y="0">10</tspan></text>
    </g>
    <g class="cls-7">
      <text class="cls-5" transform="translate(923 2211.5)"><tspan x="0" y="0">11</tspan></text>
    </g>
  </g>
  <g class="cls-7">
    <text class="cls-5" transform="translate(20 2208.5)"><tspan x="0" y="0">0bp</tspan></text>
  </g>
  <g>
    <g class="cls-7">
      <g class="cls-7">
        <text class="cls-2" transform="translate(69.1 2183.7)"><tspan x="0" y="0">CT</tspan></text>
      </g>
    </g>
    <g class="cls-7">
      <text class="cls-3" transform="translate(130.6 2184.4)"><tspan x="0" y="0">AACCT</tspan></text>
    </g>
    <g class="cls-7">
      <text class="cls-3" transform="translate(215.2 2184.4)"><tspan x="0" y="0">AACCT</tspan></text>
    </g>
    <g class="cls-7">
      <g class="cls-7">
        <text class="cls-6" transform="translate(295 2183.7)"><tspan x="0" y="0">AACCCG</tspan></text>
        <g class="cls-7">
          <text class="cls-6" transform="translate(463.8 2183.7)"><tspan x="0" y="0">AACCCG</tspan></text>
        </g>
        <g class="cls-7">
          <text class="cls-6" transform="translate(633.2 2184.8)"><tspan x="0" y="0">AACCCG</tspan></text>
        </g>
        <g class="cls-7">
          <text class="cls-6" transform="translate(801.8 2183.7)"><tspan x="0" y="0">AACCCG</tspan></text>
        </g>
        <g class="cls-7">
          <text class="cls-6" transform="translate(38.4 2256.1)"><tspan x="0" y="0">AACCCG</tspan></text>
        </g>
        <g class="cls-7">
          <text class="cls-6" transform="translate(215.5 2256.5)"><tspan x="0" y="0">AACCCG</tspan></text>
        </g>
        <g class="cls-7">
          <text class="cls-6" transform="translate(383.2 2256.1)"><tspan x="0" y="0">AACCCG</tspan></text>
        </g>
        <g class="cls-7">
          <text class="cls-6" transform="translate(551.6 2256.1)"><tspan x="0" y="0">AACCCG</tspan></text>
        </g>
      </g>
    </g>
    <g class="cls-7">
      <text class="cls-3" transform="translate(384.6 2184.4)"><tspan x="0" y="0">AACCT</tspan></text>
    </g>
    <g class="cls-7">
      <text class="cls-3" transform="translate(553.9 2184.4)"><tspan x="0" y="0">AACCT</tspan></text>
    </g>
    <g class="cls-7">
      <text class="cls-3" transform="translate(723.3 2184.4)"><tspan x="0" y="0">AACCT</tspan></text>
    </g>
    <g class="cls-7">
      <text class="cls-3" transform="translate(892.6 2184.4)"><tspan x="0" y="0">AACCT</tspan></text>
    </g>
    <g class="cls-7">
      <text class="cls-3" transform="translate(133.6 2256.1)"><tspan x="0" y="0">AACCT</tspan></text>
    </g>
    <g class="cls-7">
      <text class="cls-3" transform="translate(303 2256.1)"><tspan x="0" y="0">AACCT</tspan></text>
    </g>
    <g class="cls-7">
      <text class="cls-3" transform="translate(472.3 2256.1)"><tspan x="0" y="0">AACCT</tspan></text>
    </g>
    <g class="cls-7">
      <text class="cls-3" transform="translate(641.7 2256.1)"><tspan x="0" y="0">AACCT</tspan></text>
    </g>
  </g>
  <g class="cls-7">
    <text class="cls-5" transform="translate(164.3 2279.4)"><tspan x="0" y="0">13</tspan></text>
  </g>
  <g class="cls-7">
    <text class="cls-5" transform="translate(249 2279.4)"><tspan x="0" y="0">14</tspan></text>
  </g>
  <g class="cls-7">
    <text class="cls-5" transform="translate(333.7 2279.4)"><tspan x="0" y="0">15</tspan></text>
  </g>
  <g class="cls-7">
    <text class="cls-5" transform="translate(418.4 2279.4)"><tspan x="0" y="0">16</tspan></text>
  </g>
  <g class="cls-7">
    <text class="cls-5" transform="translate(503.1 2279.4)"><tspan x="0" y="0">17</tspan></text>
  </g>
  <g class="cls-7">
    <text class="cls-5" transform="translate(587.7 2279.4)"><tspan x="0" y="0">18</tspan></text>
  </g>
  <g class="cls-7">
    <text class="cls-5" transform="translate(672.4 2279.4)"><tspan x="0" y="0">19</tspan></text>
  </g>
  <path class="cls-8" d="M170.2,2260.9v6.7"/>
  <path class="cls-8" d="M254.9,2260.9v6.7"/>
  <path class="cls-8" d="M339.6,2260.9v6.7"/>
  <path class="cls-8" d="M424.2,2260.9v6.7"/>
  <path class="cls-8" d="M508.9,2260.9v6.7"/>
  <path class="cls-8" d="M593.6,2260.9v6.7"/>
  <path class="cls-8" d="M678.3,2260.9v6.7"/>
  <g class="cls-7">
    <text class="cls-5" transform="translate(73.9 2279.6)"><tspan x="0" y="0">12</tspan></text>
  </g>
  <path class="cls-8" d="M79.6,2260.9v6.7"/>
  <g class="cls-7">
    <text class="cls-5" transform="translate(722.5 2267.5)"><tspan x="0" y="0">100bp</tspan></text>
  </g>
  <g class="cls-7">
    <text class="cls-1" transform="translate(16.2 52.4)"><tspan x="0" y="0">A</tspan></text>
  </g>
  <g class="cls-7">
    <text class="cls-1" transform="translate(26.6 2147)"><tspan x="0" y="0">B</tspan></text>
  </g>
</svg>