<svg class="plot-d6a7b5" fill="currentColor" font-family="system-ui, sans-serif" font-size="10" text-anchor="middle" width="1600" height="60" viewBox="0 0 1600 60" xmlns="http://www.w3.org/2000/svg" xmlns:xlink="http://www.w3.org/1999/xlink"><style>:where(.plot-d6a7b5) {
  --plot-background: white;
  display: block;
  height: auto;
  height: intrinsic;
  max-width: 100%;
}
:where(.plot-d6a7b5 text),
:where(.plot-d6a7b5 tspan) {
  white-space: pre;
}</style><g aria-label="x-axis tick" aria-hidden="true" fill="none" stroke="currentColor"><path transform="translate(80,30)" d="M0,0L0,6"/><path transform="translate(160,30)" d="M0,0L0,6"/><path transform="translate(240,30)" d="M0,0L0,6"/><path transform="translate(320,30)" d="M0,0L0,6"/><path transform="translate(400,30)" d="M0,0L0,6"/><path transform="translate(480,30)" d="M0,0L0,6"/><path transform="translate(560,30)" d="M0,0L0,6"/><path transform="translate(640,30)" d="M0,0L0,6"/><path transform="translate(720,30)" d="M0,0L0,6"/><path transform="translate(800,30)" d="M0,0L0,6"/><path transform="translate(880,30)" d="M0,0L0,6"/><path transform="translate(960,30)" d="M0,0L0,6"/><path transform="translate(1040,30)" d="M0,0L0,6"/><path transform="translate(1120,30)" d="M0,0L0,6"/><path transform="translate(1200,30)" d="M0,0L0,6"/><path transform="translate(1280,30)" d="M0,0L0,6"/><path transform="translate(1360,30)" d="M0,0L0,6"/><path transform="translate(1439.9999999999998,30)" d="M0,0L0,6"/><path transform="translate(1520,30)" d="M0,0L0,6"/></g><g aria-label="x-axis tick label" font-variant="tabular-nums" transform="translate(0,9)"><text y="0.71em" transform="translate(80,30)">1</text><text y="0.71em" transform="translate(160,30)">2</text><text y="0.71em" transform="translate(240,30)">3</text><text y="0.71em" transform="translate(320,30)">4</text><text y="0.71em" transform="translate(400,30)">5</text><text y="0.71em" transform="translate(480,30)">6</text><text y="0.71em" transform="translate(560,30)">7</text><text y="0.71em" transform="translate(640,30)">8</text><text y="0.71em" transform="translate(720,30)">9</text><text y="0.71em" transform="translate(800,30)">10</text><text y="0.71em" transform="translate(880,30)">11</text><text y="0.71em" transform="translate(960,30)">12</text><text y="0.71em" transform="translate(1040,30)">13</text><text y="0.71em" transform="translate(1120,30)">14</text><text y="0.71em" transform="translate(1200,30)">15</text><text y="0.71em" transform="translate(1280,30)">16</text><text y="0.71em" transform="translate(1360,30)">17</text><text y="0.71em" transform="translate(1439.9999999999998,30)">18</text><text y="0.71em" transform="translate(1520,30)">19</text></g><g aria-label="text" transform="translate(-50,25)"><text y="0.32em" transform="translate(80,15.25)">0bp</text></g><g aria-label="text" transform="translate(48,25)"><text y="0.32em" transform="translate(1520,15.25)">100bp</text></g><g aria-label="text"><text y="0.32em" transform="translate(80,15.25)" font-size="18" fill-opacity="0.5">CT</text><text y="0.32em" transform="translate(160,15.25)" font-size="20" fill-opacity="1">AACCT</text><text y="0.32em" transform="translate(240,15.25)" font-size="20" fill-opacity="1">AACCT</text><text y="0.32em" transform="translate(320,15.25)" font-size="18" fill-opacity="0.5">AACCCG</text><text y="0.32em" transform="translate(400,15.25)" font-size="20" fill-opacity="1">AACCT</text><text y="0.32em" transform="translate(480,15.25)" font-size="18" fill-opacity="0.5">AACCCG</text><text y="0.32em" transform="translate(560,15.25)" font-size="20" fill-opacity="1">AACCT</text><text y="0.32em" transform="translate(640,15.25)" font-size="18" fill-opacity="0.5">AACCCG</text><text y="0.32em" transform="translate(720,15.25)" font-size="20" fill-opacity="1">AACCT</text><text y="0.32em" transform="translate(800,15.25)" font-size="18" fill-opacity="0.5">AACCCG</text><text y="0.32em" transform="translate(880,15.25)" font-size="20" fill-opacity="1">AACCT</text><text y="0.32em" transform="translate(960,15.25)" font-size="18" fill-opacity="0.5">AACCCG</text><text y="0.32em" transform="translate(1040,15.25)" font-size="20" fill-opacity="1">AACCT</text><text y="0.32em" transform="translate(1120,15.25)" font-size="18" fill-opacity="0.5">AACCCG</text><text y="0.32em" transform="translate(1200,15.25)" font-size="20" fill-opacity="1">AACCT</text><text y="0.32em" transform="translate(1280,15.25)" font-size="18" fill-opacity="0.5">AACCCG</text><text y="0.32em" transform="translate(1360,15.25)" font-size="20" fill-opacity="1">AACCT</text><text y="0.32em" transform="translate(1439.9999999999998,15.25)" font-size="18" fill-opacity="0.5">AACCCG</text><text y="0.32em" transform="translate(1520,15.25)" font-size="20" fill-opacity="1">AACCT</text></g></svg>